<svg width="144" height="20" viewBox="0 0 144 20" fill="none" xmlns="http://www.w3.org/2000/svg">
<path d="M10.0001 18.3333C5.40008 18.3333 1.66675 14.6 1.66675 9.99999C1.66675 5.39999 5.40008 1.66666 10.0001 1.66666C14.6001 1.66666 18.3334 5.39999 18.3334 9.99999C18.3334 14.6 14.6001 18.3333 10.0001 18.3333Z" stroke="#200B47" stroke-width="1.5" stroke-linecap="round" stroke-linejoin="round"/>
<path d="M12.4 12.5C11.8084 13.0167 11.0417 13.3333 10.2 13.3333C8.35837 13.3333 6.8667 11.8417 6.8667 9.99999C6.8667 8.15832 8.35837 6.66666 10.2 6.66666C11.0417 6.66666 11.8084 6.98332 12.4 7.49999" stroke="#200B47" stroke-width="1.5" stroke-linecap="round" stroke-linejoin="round"/>
<path d="M42.36 13.232V14H36.468V13.388L39.96 9.968C40.4 9.536 40.696 9.164 40.848 8.852C41.008 8.532 41.088 8.212 41.088 7.892C41.088 7.396 40.916 7.012 40.572 6.74C40.236 6.46 39.752 6.32 39.12 6.32C38.136 6.32 37.372 6.632 36.828 7.256L36.216 6.728C36.544 6.344 36.96 6.048 37.464 5.84C37.976 5.632 38.552 5.528 39.192 5.528C40.048 5.528 40.724 5.732 41.22 6.14C41.724 6.54 41.976 7.092 41.976 7.796C41.976 8.228 41.88 8.644 41.688 9.044C41.496 9.444 41.132 9.904 40.596 10.424L37.74 13.232H42.36ZM46.7634 14.072C46.1154 14.072 45.5354 13.9 45.0234 13.556C44.5194 13.212 44.1234 12.72 43.8354 12.08C43.5554 11.432 43.4154 10.672 43.4154 9.8C43.4154 8.928 43.5554 8.172 43.8354 7.532C44.1234 6.884 44.5194 6.388 45.0234 6.044C45.5354 5.7 46.1154 5.528 46.7634 5.528C47.4114 5.528 47.9874 5.7 48.4914 6.044C49.0034 6.388 49.4034 6.884 49.6914 7.532C49.9794 8.172 50.1234 8.928 50.1234 9.8C50.1234 10.672 49.9794 11.432 49.6914 12.08C49.4034 12.72 49.0034 13.212 48.4914 13.556C47.9874 13.9 47.4114 14.072 46.7634 14.072ZM46.7634 13.28C47.2514 13.28 47.6794 13.144 48.0474 12.872C48.4234 12.6 48.7154 12.204 48.9234 11.684C49.1314 11.164 49.2354 10.536 49.2354 9.8C49.2354 9.064 49.1314 8.436 48.9234 7.916C48.7154 7.396 48.4234 7 48.0474 6.728C47.6794 6.456 47.2514 6.32 46.7634 6.32C46.2754 6.32 45.8434 6.456 45.4674 6.728C45.0994 7 44.8114 7.396 44.6034 7.916C44.3954 8.436 44.2914 9.064 44.2914 9.8C44.2914 10.536 44.3954 11.164 44.6034 11.684C44.8114 12.204 45.0994 12.6 45.4674 12.872C45.8434 13.144 46.2754 13.28 46.7634 13.28ZM57.0913 13.232V14H51.1993V13.388L54.6913 9.968C55.1313 9.536 55.4273 9.164 55.5793 8.852C55.7393 8.532 55.8193 8.212 55.8193 7.892C55.8193 7.396 55.6473 7.012 55.3033 6.74C54.9673 6.46 54.4833 6.32 53.8513 6.32C52.8673 6.32 52.1033 6.632 51.5593 7.256L50.9473 6.728C51.2753 6.344 51.6913 6.048 52.1953 5.84C52.7073 5.632 53.2833 5.528 53.9233 5.528C54.7793 5.528 55.4553 5.732 55.9513 6.14C56.4553 6.54 56.7073 7.092 56.7073 7.796C56.7073 8.228 56.6113 8.644 56.4193 9.044C56.2273 9.444 55.8633 9.904 55.3273 10.424L52.4713 13.232H57.0913ZM60.5216 5.6V14H59.6576V6.368H57.6776V5.6H60.5216ZM63.2076 12.752C63.3916 12.752 63.5436 12.816 63.6636 12.944C63.7836 13.064 63.8436 13.216 63.8436 13.4C63.8436 13.496 63.8276 13.6 63.7956 13.712C63.7716 13.824 63.7316 13.952 63.6756 14.096L63.1716 15.752H62.5956L63.0036 14.012C62.8756 13.972 62.7716 13.9 62.6916 13.796C62.6116 13.684 62.5716 13.552 62.5716 13.4C62.5716 13.216 62.6316 13.064 62.7516 12.944C62.8716 12.816 63.0236 12.752 63.2076 12.752ZM77.7352 5.6V14H76.8832V7.28L73.5832 12.932H73.1632L69.8632 7.316V14H69.0112V5.6H69.7432L73.3912 11.828L77.0032 5.6H77.7352ZM85.9981 7.688V14H85.1821V12.848C84.9581 13.232 84.6501 13.532 84.2581 13.748C83.8661 13.956 83.4181 14.06 82.9141 14.06C82.0901 14.06 81.4381 13.832 80.9581 13.376C80.4861 12.912 80.2501 12.236 80.2501 11.348V7.688H81.1021V11.264C81.1021 11.928 81.2661 12.432 81.5941 12.776C81.9221 13.12 82.3901 13.292 82.9981 13.292C83.6621 13.292 84.1861 13.092 84.5701 12.692C84.9541 12.284 85.1461 11.72 85.1461 11V7.688H85.9981ZM89.2183 8.924C89.4183 8.5 89.7143 8.18 90.1063 7.964C90.5063 7.748 90.9983 7.64 91.5823 7.64V8.468L91.3783 8.456C90.7143 8.456 90.1943 8.66 89.8183 9.068C89.4423 9.476 89.2543 10.048 89.2543 10.784V14H88.4023V7.688H89.2183V8.924ZM101.015 7.64C101.807 7.64 102.427 7.868 102.875 8.324C103.331 8.78 103.559 9.452 103.559 10.34V14H102.707V10.424C102.707 9.768 102.547 9.268 102.227 8.924C101.915 8.58 101.471 8.408 100.895 8.408C100.239 8.408 99.723 8.612 99.347 9.02C98.971 9.42 98.783 9.976 98.783 10.688V14H97.931V10.424C97.931 9.768 97.771 9.268 97.451 8.924C97.139 8.58 96.691 8.408 96.107 8.408C95.459 8.408 94.943 8.612 94.559 9.02C94.183 9.42 93.995 9.976 93.995 10.688V14H93.143V7.688H93.959V8.84C94.183 8.456 94.495 8.16 94.895 7.952C95.295 7.744 95.755 7.64 96.275 7.64C96.803 7.64 97.259 7.752 97.643 7.976C98.035 8.2 98.327 8.532 98.519 8.972C98.751 8.556 99.083 8.232 99.515 8C99.955 7.76 100.455 7.64 101.015 7.64ZM111.576 7.688V14H110.76V12.848C110.536 13.232 110.228 13.532 109.836 13.748C109.444 13.956 108.996 14.06 108.492 14.06C107.668 14.06 107.016 13.832 106.536 13.376C106.064 12.912 105.828 12.236 105.828 11.348V7.688H106.68V11.264C106.68 11.928 106.844 12.432 107.172 12.776C107.5 13.12 107.968 13.292 108.576 13.292C109.24 13.292 109.764 13.092 110.148 12.692C110.532 12.284 110.724 11.72 110.724 11V7.688H111.576ZM114.796 8.924C114.996 8.5 115.292 8.18 115.684 7.964C116.084 7.748 116.576 7.64 117.16 7.64V8.468L116.956 8.456C116.292 8.456 115.772 8.66 115.396 9.068C115.02 9.476 114.832 10.048 114.832 10.784V14H113.98V7.688H114.796V8.924ZM122.326 14.072C121.494 14.072 120.742 13.888 120.07 13.52C119.406 13.152 118.882 12.644 118.498 11.996C118.122 11.34 117.934 10.608 117.934 9.8C117.934 8.992 118.122 8.264 118.498 7.616C118.882 6.96 119.41 6.448 120.082 6.08C120.754 5.712 121.506 5.528 122.338 5.528C122.962 5.528 123.538 5.632 124.066 5.84C124.594 6.048 125.042 6.352 125.41 6.752L124.846 7.316C124.19 6.652 123.362 6.32 122.362 6.32C121.698 6.32 121.094 6.472 120.55 6.776C120.006 7.08 119.578 7.496 119.266 8.024C118.962 8.552 118.81 9.144 118.81 9.8C118.81 10.456 118.962 11.048 119.266 11.576C119.578 12.104 120.006 12.52 120.55 12.824C121.094 13.128 121.698 13.28 122.362 13.28C123.37 13.28 124.198 12.944 124.846 12.272L125.41 12.836C125.042 13.236 124.59 13.544 124.054 13.76C123.526 13.968 122.95 14.072 122.326 14.072ZM129.255 7.64C130.079 7.64 130.711 7.848 131.151 8.264C131.591 8.672 131.811 9.28 131.811 10.088V14H130.995V13.016C130.803 13.344 130.519 13.6 130.143 13.784C129.775 13.968 129.335 14.06 128.823 14.06C128.119 14.06 127.559 13.892 127.143 13.556C126.727 13.22 126.519 12.776 126.519 12.224C126.519 11.688 126.711 11.256 127.095 10.928C127.487 10.6 128.107 10.436 128.955 10.436H130.959V10.052C130.959 9.508 130.807 9.096 130.503 8.816C130.199 8.528 129.755 8.384 129.171 8.384C128.771 8.384 128.387 8.452 128.019 8.588C127.651 8.716 127.335 8.896 127.071 9.128L126.687 8.492C127.007 8.22 127.391 8.012 127.839 7.868C128.287 7.716 128.759 7.64 129.255 7.64ZM128.955 13.388C129.435 13.388 129.847 13.28 130.191 13.064C130.535 12.84 130.791 12.52 130.959 12.104V11.072H128.979C127.899 11.072 127.359 11.448 127.359 12.2C127.359 12.568 127.499 12.86 127.779 13.076C128.059 13.284 128.451 13.388 128.955 13.388ZM134.959 8.924C135.159 8.5 135.455 8.18 135.847 7.964C136.247 7.748 136.739 7.64 137.323 7.64V8.468L137.119 8.456C136.455 8.456 135.935 8.66 135.559 9.068C135.183 9.476 134.995 10.048 134.995 10.784V14H134.143V7.688H134.959V8.924ZM140.623 14.06C140.111 14.06 139.619 13.988 139.147 13.844C138.683 13.692 138.319 13.504 138.055 13.28L138.439 12.608C138.703 12.816 139.035 12.988 139.435 13.124C139.835 13.252 140.251 13.316 140.683 13.316C141.259 13.316 141.683 13.228 141.955 13.052C142.235 12.868 142.375 12.612 142.375 12.284C142.375 12.052 142.299 11.872 142.147 11.744C141.995 11.608 141.803 11.508 141.571 11.444C141.339 11.372 141.031 11.304 140.647 11.24C140.135 11.144 139.723 11.048 139.411 10.952C139.099 10.848 138.831 10.676 138.607 10.436C138.391 10.196 138.283 9.864 138.283 9.44C138.283 8.912 138.503 8.48 138.943 8.144C139.383 7.808 139.995 7.64 140.779 7.64C141.187 7.64 141.595 7.696 142.003 7.808C142.411 7.912 142.747 8.052 143.011 8.228L142.639 8.912C142.119 8.552 141.499 8.372 140.779 8.372C140.235 8.372 139.823 8.468 139.543 8.66C139.271 8.852 139.135 9.104 139.135 9.416C139.135 9.656 139.211 9.848 139.363 9.992C139.523 10.136 139.719 10.244 139.951 10.316C140.183 10.38 140.503 10.448 140.911 10.52C141.415 10.616 141.819 10.712 142.123 10.808C142.427 10.904 142.687 11.068 142.903 11.3C143.119 11.532 143.227 11.852 143.227 12.26C143.227 12.812 142.995 13.252 142.531 13.58C142.075 13.9 141.439 14.06 140.623 14.06Z" fill="#200B47"/>
</svg>
