<svg width="92" height="89" viewBox="0 0 92 89" fill="none" xmlns="http://www.w3.org/2000/svg">
<g opacity="0.08">
<path d="M71.9788 87.863C74.9955 88.6713 77.7645 88.3928 80.2859 87.0274C82.7685 85.595 84.4138 83.3712 85.2217 80.3561C86.0296 77.3411 85.7025 74.6455 84.2403 72.2694C82.7394 69.8263 80.4806 68.2005 77.4639 67.3922C74.4472 66.5839 71.7046 66.8695 69.2361 68.249C66.7289 69.5615 65.0714 71.7253 64.2635 74.7404C63.4556 77.7555 63.795 80.511 65.2817 83.0071C66.7297 85.436 68.962 87.0547 71.9788 87.863Z" fill="#3F2B89"/>
<path d="M44.9996 79.991L91.2245 12.2684L75.3471 8.01402L29.1222 75.7366L44.9996 79.991Z" fill="#3F2B89"/>
<path d="M16.3923 72.3257L62.6173 4.60307L46.7398 0.348724L0.514919 68.0713L16.3923 72.3257Z" fill="#3F2B89"/>
</g>
</svg>
