<svg width="20" height="20" viewBox="0 0 20 20" fill="none" xmlns="http://www.w3.org/2000/svg">
<path d="M9.47437 18.2083H9.35041L9.2945 18.1167C9.353 18.1501 9.41301 18.1805 9.47437 18.2083Z" stroke="#8F9BB3" stroke-width="1.5"/>
<mask id="path-2-inside-1_280_462" fill="white">
<path d="M8.33342 7.29168H4.16675C3.82508 7.29168 3.54175 7.00834 3.54175 6.66668V5.00001C3.54175 3.73334 4.56675 2.70834 5.83341 2.70834H8.42507C8.61674 2.70834 8.80009 2.79999 8.91676 2.94999C9.03343 3.10833 9.07507 3.30835 9.02507 3.49168C8.97507 3.67501 8.95842 3.88334 8.95842 4.16668V6.66668C8.95842 7.00834 8.67508 7.29168 8.33342 7.29168ZM4.79175 6.04168H7.70842V4.16668C7.70842 4.09168 7.70842 4.02501 7.70842 3.95834H5.83341C5.25841 3.95834 4.79175 4.42501 4.79175 5.00001V6.04168Z"/>
</mask>
<path d="M8.91676 2.94999L10.1243 2.06019L10.1128 2.04448L10.1008 2.02908L8.91676 2.94999ZM4.79175 6.04168H3.29175V7.54168H4.79175V6.04168ZM7.70842 6.04168V7.54168H9.20842V6.04168H7.70842ZM7.70842 3.95834H9.20842V2.45834H7.70842V3.95834ZM8.33342 5.79168H4.16675V8.79168H8.33342V5.79168ZM4.16675 5.79168C4.65351 5.79168 5.04175 6.17992 5.04175 6.66668H2.04175C2.04175 7.83677 2.99665 8.79168 4.16675 8.79168V5.79168ZM5.04175 6.66668V5.00001H2.04175V6.66668H5.04175ZM5.04175 5.00001C5.04175 4.56177 5.39518 4.20834 5.83342 4.20834V1.20834C3.73832 1.20834 2.04175 2.90492 2.04175 5.00001H5.04175ZM5.83342 4.20834H8.42507V1.20834H5.83342V4.20834ZM8.42507 4.20834C8.14553 4.20834 7.8951 4.07967 7.73273 3.8709L10.1008 2.02908C9.70508 1.52032 9.08794 1.20834 8.42507 1.20834V4.20834ZM7.70918 3.83979C7.57412 3.6565 7.49862 3.38781 7.57793 3.097L10.4722 3.88636C10.6515 3.22889 10.4927 2.56015 10.1243 2.06019L7.70918 3.83979ZM7.57793 3.097C7.47513 3.47393 7.45842 3.84039 7.45842 4.16668H10.4584C10.4584 3.9263 10.475 3.87609 10.4722 3.88636L7.57793 3.097ZM7.45842 4.16668V6.66668H10.4584V4.16668H7.45842ZM7.45842 6.66668C7.45842 6.17992 7.84665 5.79168 8.33342 5.79168V8.79168C9.50351 8.79168 10.4584 7.83677 10.4584 6.66668H7.45842ZM4.79175 7.54168H7.70842V4.54168H4.79175V7.54168ZM9.20842 6.04168V4.16668H6.20842V6.04168H9.20842ZM9.20842 4.16668C9.20842 4.16653 9.20842 4.16638 9.20842 4.16624C9.20842 4.16609 9.20842 4.16594 9.20842 4.1658C9.20842 4.16565 9.20842 4.16551 9.20842 4.16536C9.20842 4.16521 9.20842 4.16507 9.20842 4.16492C9.20842 4.16477 9.20842 4.16463 9.20842 4.16448C9.20842 4.16434 9.20842 4.16419 9.20842 4.16404C9.20842 4.1639 9.20842 4.16375 9.20842 4.16361C9.20842 4.16346 9.20842 4.16331 9.20842 4.16317C9.20842 4.16302 9.20842 4.16288 9.20842 4.16273C9.20842 4.16258 9.20842 4.16244 9.20842 4.16229C9.20842 4.16215 9.20842 4.162 9.20842 4.16185C9.20842 4.16171 9.20842 4.16156 9.20842 4.16142C9.20842 4.16127 9.20842 4.16113 9.20842 4.16098C9.20842 4.16083 9.20842 4.16069 9.20842 4.16054C9.20842 4.1604 9.20842 4.16025 9.20842 4.16011C9.20842 4.15996 9.20842 4.15982 9.20842 4.15967C9.20842 4.15952 9.20842 4.15938 9.20842 4.15923C9.20842 4.15909 9.20842 4.15894 9.20842 4.1588C9.20842 4.15865 9.20842 4.15851 9.20842 4.15836C9.20842 4.15822 9.20842 4.15807 9.20842 4.15793C9.20842 4.15778 9.20842 4.15764 9.20842 4.15749C9.20842 4.15734 9.20842 4.1572 9.20842 4.15705C9.20842 4.15691 9.20842 4.15676 9.20842 4.15662C9.20842 4.15647 9.20842 4.15633 9.20842 4.15618C9.20842 4.15604 9.20842 4.15589 9.20842 4.15575C9.20842 4.1556 9.20842 4.15546 9.20842 4.15531C9.20842 4.15517 9.20842 4.15502 9.20842 4.15488C9.20842 4.15474 9.20842 4.15459 9.20842 4.15445C9.20842 4.1543 9.20842 4.15416 9.20842 4.15401C9.20842 4.15387 9.20842 4.15372 9.20842 4.15358C9.20842 4.15343 9.20842 4.15329 9.20842 4.15314C9.20842 4.153 9.20842 4.15285 9.20842 4.15271C9.20842 4.15257 9.20842 4.15242 9.20842 4.15228C9.20842 4.15213 9.20842 4.15199 9.20842 4.15184C9.20842 4.1517 9.20842 4.15155 9.20842 4.15141C9.20842 4.15127 9.20842 4.15112 9.20842 4.15098C9.20842 4.15083 9.20842 4.15069 9.20842 4.15054C9.20842 4.1504 9.20842 4.15026 9.20842 4.15011C9.20842 4.14997 9.20842 4.14982 9.20842 4.14968C9.20842 4.14954 9.20842 4.14939 9.20842 4.14925C9.20842 4.1491 9.20842 4.14896 9.20842 4.14882C9.20842 4.14867 9.20842 4.14853 9.20842 4.14838C9.20842 4.14824 9.20842 4.1481 9.20842 4.14795C9.20842 4.14781 9.20842 4.14766 9.20842 4.14752C9.20842 4.14738 9.20842 4.14723 9.20842 4.14709C9.20842 4.14695 9.20842 4.1468 9.20842 4.14666C9.20842 4.14651 9.20842 4.14637 9.20842 4.14623C9.20842 4.14608 9.20842 4.14594 9.20842 4.1458C9.20842 4.14565 9.20842 4.14551 9.20842 4.14537C9.20842 4.14522 9.20842 4.14508 9.20842 4.14493C9.20842 4.14479 9.20842 4.14465 9.20842 4.1445C9.20842 4.14436 9.20842 4.14422 9.20842 4.14407C9.20842 4.14393 9.20842 4.14379 9.20842 4.14364C9.20842 4.1435 9.20842 4.14336 9.20842 4.14321C9.20842 4.14307 9.20842 4.14293 9.20842 4.14279C9.20842 4.14264 9.20842 4.1425 9.20842 4.14236C9.20842 4.14221 9.20842 4.14207 9.20842 4.14193C9.20842 4.14178 9.20842 4.14164 9.20842 4.1415C9.20842 4.14135 9.20842 4.14121 9.20842 4.14107C9.20842 4.14093 9.20842 4.14078 9.20842 4.14064C9.20842 4.1405 9.20842 4.14035 9.20842 4.14021C9.20842 4.14007 9.20842 4.13993 9.20842 4.13978C9.20842 4.13964 9.20842 4.1395 9.20842 4.13935C9.20842 4.13921 9.20842 4.13907 9.20842 4.13893C9.20842 4.13878 9.20842 4.13864 9.20842 4.1385C9.20842 4.13836 9.20842 4.13821 9.20842 4.13807C9.20842 4.13793 9.20842 4.13779 9.20842 4.13764C9.20842 4.1375 9.20842 4.13736 9.20842 4.13722C9.20842 4.13707 9.20842 4.13693 9.20842 4.13679C9.20842 4.13665 9.20842 4.1365 9.20842 4.13636C9.20842 4.13622 9.20842 4.13608 9.20842 4.13593C9.20842 4.13579 9.20842 4.13565 9.20842 4.13551C9.20842 4.13537 9.20842 4.13522 9.20842 4.13508C9.20842 4.13494 9.20842 4.1348 9.20842 4.13465C9.20842 4.13451 9.20842 4.13437 9.20842 4.13423C9.20842 4.13409 9.20842 4.13394 9.20842 4.1338C9.20842 4.13366 9.20842 4.13352 9.20842 4.13338C9.20842 4.13323 9.20842 4.13309 9.20842 4.13295C9.20842 4.13281 9.20842 4.13267 9.20842 4.13252C9.20842 4.13238 9.20842 4.13224 9.20842 4.1321C9.20842 4.13196 9.20842 4.13182 9.20842 4.13167C9.20842 4.13153 9.20842 4.13139 9.20842 4.13125C9.20842 4.13111 9.20842 4.13097 9.20842 4.13082C9.20842 4.13068 9.20842 4.13054 9.20842 4.1304C9.20842 4.13026 9.20842 4.13012 9.20842 4.12997C9.20842 4.12983 9.20842 4.12969 9.20842 4.12955C9.20842 4.12941 9.20842 4.12927 9.20842 4.12913C9.20842 4.12898 9.20842 4.12884 9.20842 4.1287C9.20842 4.12856 9.20842 4.12842 9.20842 4.12828C9.20842 4.12814 9.20842 4.12799 9.20842 4.12785C9.20842 4.12771 9.20842 4.12757 9.20842 4.12743C9.20842 4.12729 9.20842 4.12715 9.20842 4.12701C9.20842 4.12686 9.20842 4.12672 9.20842 4.12658C9.20842 4.12644 9.20842 4.1263 9.20842 4.12616C9.20842 4.12602 9.20842 4.12588 9.20842 4.12574C9.20842 4.1256 9.20842 4.12545 9.20842 4.12531C9.20842 4.12517 9.20842 4.12503 9.20842 4.12489C9.20842 4.12475 9.20842 4.12461 9.20842 4.12447C9.20842 4.12433 9.20842 4.12419 9.20842 4.12405C9.20842 4.1239 9.20842 4.12376 9.20842 4.12362C9.20842 4.12348 9.20842 4.12334 9.20842 4.1232C9.20842 4.12306 9.20842 4.12292 9.20842 4.12278C9.20842 4.12264 9.20842 4.1225 9.20842 4.12236C9.20842 4.12222 9.20842 4.12208 9.20842 4.12194C9.20842 4.12179 9.20842 4.12165 9.20842 4.12151C9.20842 4.12137 9.20842 4.12123 9.20842 4.12109C9.20842 4.12095 9.20842 4.12081 9.20842 4.12067C9.20842 4.12053 9.20842 4.12039 9.20842 4.12025C9.20842 4.12011 9.20842 4.11997 9.20842 4.11983C9.20842 4.11969 9.20842 4.11955 9.20842 4.11941C9.20842 4.11927 9.20842 4.11913 9.20842 4.11899C9.20842 4.11885 9.20842 4.11871 9.20842 4.11857C9.20842 4.11843 9.20842 4.11829 9.20842 4.11815C9.20842 4.11801 9.20842 4.11787 9.20842 4.11773C9.20842 4.11759 9.20842 4.11745 9.20842 4.11731C9.20842 4.11717 9.20842 4.11703 9.20842 4.11689C9.20842 4.11675 9.20842 4.11661 9.20842 4.11647C9.20842 4.11633 9.20842 4.11619 9.20842 4.11605C9.20842 4.11591 9.20842 4.11577 9.20842 4.11563C9.20842 4.11549 9.20842 4.11535 9.20842 4.11521C9.20842 4.11507 9.20842 4.11493 9.20842 4.11479C9.20842 4.11465 9.20842 4.11451 9.20842 4.11437C9.20842 4.11423 9.20842 4.11409 9.20842 4.11395C9.20842 4.11381 9.20842 4.11367 9.20842 4.11353C9.20842 4.11339 9.20842 4.11325 9.20842 4.11311C9.20842 4.11297 9.20842 4.11284 9.20842 4.1127C9.20842 4.11256 9.20842 4.11242 9.20842 4.11228C9.20842 4.11214 9.20842 4.112 9.20842 4.11186C9.20842 4.11172 9.20842 4.11158 9.20842 4.11144C9.20842 4.1113 9.20842 4.11116 9.20842 4.11102C9.20842 4.11088 9.20842 4.11074 9.20842 4.11061C9.20842 4.11047 9.20842 4.11033 9.20842 4.11019C9.20842 4.11005 9.20842 4.10991 9.20842 4.10977C9.20842 4.10963 9.20842 4.10949 9.20842 4.10935C9.20842 4.10921 9.20842 4.10908 9.20842 4.10894C9.20842 4.1088 9.20842 4.10866 9.20842 4.10852C9.20842 4.10838 9.20842 4.10824 9.20842 4.1081C9.20842 4.10796 9.20842 4.10782 9.20842 4.10769C9.20842 4.10755 9.20842 4.10741 9.20842 4.10727C9.20842 4.10713 9.20842 4.10699 9.20842 4.10685C9.20842 4.10671 9.20842 4.10657 9.20842 4.10644C9.20842 4.1063 9.20842 4.10616 9.20842 4.10602C9.20842 4.10588 9.20842 4.10574 9.20842 4.1056C9.20842 4.10547 9.20842 4.10533 9.20842 4.10519C9.20842 4.10505 9.20842 4.10491 9.20842 4.10477C9.20842 4.10463 9.20842 4.10449 9.20842 4.10436C9.20842 4.10422 9.20842 4.10408 9.20842 4.10394C9.20842 4.1038 9.20842 4.10366 9.20842 4.10353C9.20842 4.10339 9.20842 4.10325 9.20842 4.10311C9.20842 4.10297 9.20842 4.10283 9.20842 4.1027C9.20842 4.10256 9.20842 4.10242 9.20842 4.10228C9.20842 4.10214 9.20842 4.102 9.20842 4.10187C9.20842 4.10173 9.20842 4.10159 9.20842 4.10145C9.20842 4.10131 9.20842 4.10117 9.20842 4.10104C9.20842 4.1009 9.20842 4.10076 9.20842 4.10062C9.20842 4.10048 9.20842 4.10035 9.20842 4.10021C9.20842 4.10007 9.20842 4.09993 9.20842 4.09979C9.20842 4.09966 9.20842 4.09952 9.20842 4.09938C9.20842 4.09924 9.20842 4.0991 9.20842 4.09897C9.20842 4.09883 9.20842 4.09869 9.20842 4.09855C9.20842 4.09841 9.20842 4.09828 9.20842 4.09814C9.20842 4.098 9.20842 4.09786 9.20842 4.09772C9.20842 4.09759 9.20842 4.09745 9.20842 4.09731C9.20842 4.09717 9.20842 4.09704 9.20842 4.0969C9.20842 4.09676 9.20842 4.09662 9.20842 4.09648C9.20842 4.09635 9.20842 4.09621 9.20842 4.09607C9.20842 4.09593 9.20842 4.0958 9.20842 4.09566C9.20842 4.09552 9.20842 4.09538 9.20842 4.09525C9.20842 4.09511 9.20842 4.09497 9.20842 4.09483C9.20842 4.0947 9.20842 4.09456 9.20842 4.09442C9.20842 4.09428 9.20842 4.09415 9.20842 4.09401C9.20842 4.09387 9.20842 4.09373 9.20842 4.0936C9.20842 4.09346 9.20842 4.09332 9.20842 4.09318C9.20842 4.09305 9.20842 4.09291 9.20842 4.09277C9.20842 4.09264 9.20842 4.0925 9.20842 4.09236C9.20842 4.09222 9.20842 4.09209 9.20842 4.09195C9.20842 4.09181 9.20842 4.09167 9.20842 4.09154C9.20842 4.0914 9.20842 4.09126 9.20842 4.09113C9.20842 4.09099 9.20842 4.09085 9.20842 4.09071C9.20842 4.09058 9.20842 4.09044 9.20842 4.0903C9.20842 4.09017 9.20842 4.09003 9.20842 4.08989C9.20842 4.08976 9.20842 4.08962 9.20842 4.08948C9.20842 4.08934 9.20842 4.08921 9.20842 4.08907C9.20842 4.08893 9.20842 4.0888 9.20842 4.08866C9.20842 4.08852 9.20842 4.08839 9.20842 4.08825C9.20842 4.08811 9.20842 4.08798 9.20842 4.08784C9.20842 4.0877 9.20842 4.08756 9.20842 4.08743C9.20842 4.08729 9.20842 4.08715 9.20842 4.08702C9.20842 4.08688 9.20842 4.08674 9.20842 4.08661C9.20842 4.08647 9.20842 4.08633 9.20842 4.0862C9.20842 4.08606 9.20842 4.08592 9.20842 4.08579C9.20842 4.08565 9.20842 4.08551 9.20842 4.08538C9.20842 4.08524 9.20842 4.0851 9.20842 4.08497C9.20842 4.08483 9.20842 4.0847 9.20842 4.08456C9.20842 4.08442 9.20842 4.08429 9.20842 4.08415C9.20842 4.08401 9.20842 4.08388 9.20842 4.08374C9.20842 4.0836 9.20842 4.08347 9.20842 4.08333C9.20842 4.08319 9.20842 4.08306 9.20842 4.08292C9.20842 4.08279 9.20842 4.08265 9.20842 4.08251C9.20842 4.08238 9.20842 4.08224 9.20842 4.0821C9.20842 4.08197 9.20842 4.08183 9.20842 4.0817C9.20842 4.08156 9.20842 4.08142 9.20842 4.08129C9.20842 4.08115 9.20842 4.08101 9.20842 4.08088C9.20842 4.08074 9.20842 4.08061 9.20842 4.08047C9.20842 4.08033 9.20842 4.0802 9.20842 4.08006C9.20842 4.07993 9.20842 4.07979 9.20842 4.07965C9.20842 4.07952 9.20842 4.07938 9.20842 4.07925C9.20842 4.07911 9.20842 4.07897 9.20842 4.07884C9.20842 4.0787 9.20842 4.07857 9.20842 4.07843C9.20842 4.07829 9.20842 4.07816 9.20842 4.07802C9.20842 4.07789 9.20842 4.07775 9.20842 4.07761C9.20842 4.07748 9.20842 4.07734 9.20842 4.07721C9.20842 4.07707 9.20842 4.07694 9.20842 4.0768C9.20842 4.07666 9.20842 4.07653 9.20842 4.07639C9.20842 4.07626 9.20842 4.07612 9.20842 4.07599C9.20842 4.07585 9.20842 4.07571 9.20842 4.07558C9.20842 4.07544 9.20842 4.07531 9.20842 4.07517C9.20842 4.07504 9.20842 4.0749 9.20842 4.07477C9.20842 4.07463 9.20842 4.07449 9.20842 4.07436C9.20842 4.07422 9.20842 4.07409 9.20842 4.07395C9.20842 4.07382 9.20842 4.07368 9.20842 4.07355C9.20842 4.07341 9.20842 4.07327 9.20842 4.07314C9.20842 4.073 9.20842 4.07287 9.20842 4.07273C9.20842 4.0726 9.20842 4.07246 9.20842 4.07233C9.20842 4.07219 9.20842 4.07206 9.20842 4.07192C9.20842 4.07179 9.20842 4.07165 9.20842 4.07151C9.20842 4.07138 9.20842 4.07124 9.20842 4.07111C9.20842 4.07097 9.20842 4.07084 9.20842 4.0707C9.20842 4.07057 9.20842 4.07043 9.20842 4.0703C9.20842 4.07016 9.20842 4.07003 9.20842 4.06989C9.20842 4.06976 9.20842 4.06962 9.20842 4.06949C9.20842 4.06935 9.20842 4.06922 9.20842 4.06908C9.20842 4.06895 9.20842 4.06881 9.20842 4.06868C9.20842 4.06854 9.20842 4.06841 9.20842 4.06827C9.20842 4.06814 9.20842 4.068 9.20842 4.06787C9.20842 4.06773 9.20842 4.0676 9.20842 4.06746C9.20842 4.06733 9.20842 4.06719 9.20842 4.06706C9.20842 4.06692 9.20842 4.06679 9.20842 4.06665C9.20842 4.06652 9.20842 4.06638 9.20842 4.06625C9.20842 4.06611 9.20842 4.06598 9.20842 4.06584C9.20842 4.06571 9.20842 4.06557 9.20842 4.06544C9.20842 4.0653 9.20842 4.06517 9.20842 4.06503C9.20842 4.0649 9.20842 4.06476 9.20842 4.06463C9.20842 4.0645 9.20842 4.06436 9.20842 4.06423C9.20842 4.06409 9.20842 4.06396 9.20842 4.06382C9.20842 4.06369 9.20842 4.06355 9.20842 4.06342C9.20842 4.06328 9.20842 4.06315 9.20842 4.06301C9.20842 4.06288 9.20842 4.06275 9.20842 4.06261C9.20842 4.06248 9.20842 4.06234 9.20842 4.06221C9.20842 4.06207 9.20842 4.06194 9.20842 4.0618C9.20842 4.06167 9.20842 4.06154 9.20842 4.0614C9.20842 4.06127 9.20842 4.06113 9.20842 4.061C9.20842 4.06086 9.20842 4.06073 9.20842 4.06059C9.20842 4.06046 9.20842 4.06033 9.20842 4.06019C9.20842 4.06006 9.20842 4.05992 9.20842 4.05979C9.20842 4.05965 9.20842 4.05952 9.20842 4.05939C9.20842 4.05925 9.20842 4.05912 9.20842 4.05898C9.20842 4.05885 9.20842 4.05871 9.20842 4.05858C9.20842 4.05845 9.20842 4.05831 9.20842 4.05818C9.20842 4.05804 9.20842 4.05791 9.20842 4.05777C9.20842 4.05764 9.20842 4.05751 9.20842 4.05737C9.20842 4.05724 9.20842 4.0571 9.20842 4.05697C9.20842 4.05684 9.20842 4.0567 9.20842 4.05657C9.20842 4.05643 9.20842 4.0563 9.20842 4.05617C9.20842 4.05603 9.20842 4.0559 9.20842 4.05576C9.20842 4.05563 9.20842 4.0555 9.20842 4.05536C9.20842 4.05523 9.20842 4.05509 9.20842 4.05496C9.20842 4.05483 9.20842 4.05469 9.20842 4.05456C9.20842 4.05442 9.20842 4.05429 9.20842 4.05416C9.20842 4.05402 9.20842 4.05389 9.20842 4.05375C9.20842 4.05362 9.20842 4.05349 9.20842 4.05335C9.20842 4.05322 9.20842 4.05309 9.20842 4.05295C9.20842 4.05282 9.20842 4.05268 9.20842 4.05255C9.20842 4.05242 9.20842 4.05228 9.20842 4.05215C9.20842 4.05202 9.20842 4.05188 9.20842 4.05175C9.20842 4.05161 9.20842 4.05148 9.20842 4.05135C9.20842 4.05121 9.20842 4.05108 9.20842 4.05095C9.20842 4.05081 9.20842 4.05068 9.20842 4.05055C9.20842 4.05041 9.20842 4.05028 9.20842 4.05014C9.20842 4.05001 9.20842 4.04988 9.20842 4.04974C9.20842 4.04961 9.20842 4.04948 9.20842 4.04934C9.20842 4.04921 9.20842 4.04908 9.20842 4.04894C9.20842 4.04881 9.20842 4.04868 9.20842 4.04854C9.20842 4.04841 9.20842 4.04828 9.20842 4.04814C9.20842 4.04801 9.20842 4.04788 9.20842 4.04774C9.20842 4.04761 9.20842 4.04747 9.20842 4.04734C9.20842 4.04721 9.20842 4.04707 9.20842 4.04694C9.20842 4.04681 9.20842 4.04667 9.20842 4.04654C9.20842 4.04641 9.20842 4.04627 9.20842 4.04614C9.20842 4.04601 9.20842 4.04587 9.20842 4.04574C9.20842 4.04561 9.20842 4.04548 9.20842 4.04534C9.20842 4.04521 9.20842 4.04508 9.20842 4.04494C9.20842 4.04481 9.20842 4.04468 9.20842 4.04454C9.20842 4.04441 9.20842 4.04428 9.20842 4.04414C9.20842 4.04401 9.20842 4.04388 9.20842 4.04374C9.20842 4.04361 9.20842 4.04348 9.20842 4.04334C9.20842 4.04321 9.20842 4.04308 9.20842 4.04295C9.20842 4.04281 9.20842 4.04268 9.20842 4.04255C9.20842 4.04241 9.20842 4.04228 9.20842 4.04215C9.20842 4.04201 9.20842 4.04188 9.20842 4.04175C9.20842 4.04161 9.20842 4.04148 9.20842 4.04135C9.20842 4.04122 9.20842 4.04108 9.20842 4.04095C9.20842 4.04082 9.20842 4.04068 9.20842 4.04055C9.20842 4.04042 9.20842 4.04029 9.20842 4.04015C9.20842 4.04002 9.20842 4.03989 9.20842 4.03975C9.20842 4.03962 9.20842 4.03949 9.20842 4.03936C9.20842 4.03922 9.20842 4.03909 9.20842 4.03896C9.20842 4.03882 9.20842 4.03869 9.20842 4.03856C9.20842 4.03843 9.20842 4.03829 9.20842 4.03816C9.20842 4.03803 9.20842 4.03789 9.20842 4.03776C9.20842 4.03763 9.20842 4.0375 9.20842 4.03736C9.20842 4.03723 9.20842 4.0371 9.20842 4.03697C9.20842 4.03683 9.20842 4.0367 9.20842 4.03657C9.20842 4.03643 9.20842 4.0363 9.20842 4.03617C9.20842 4.03604 9.20842 4.0359 9.20842 4.03577C9.20842 4.03564 9.20842 4.03551 9.20842 4.03537C9.20842 4.03524 9.20842 4.03511 9.20842 4.03498C9.20842 4.03484 9.20842 4.03471 9.20842 4.03458C9.20842 4.03445 9.20842 4.03431 9.20842 4.03418C9.20842 4.03405 9.20842 4.03392 9.20842 4.03378C9.20842 4.03365 9.20842 4.03352 9.20842 4.03339C9.20842 4.03325 9.20842 4.03312 9.20842 4.03299C9.20842 4.03286 9.20842 4.03272 9.20842 4.03259C9.20842 4.03246 9.20842 4.03233 9.20842 4.03219C9.20842 4.03206 9.20842 4.03193 9.20842 4.0318C9.20842 4.03166 9.20842 4.03153 9.20842 4.0314C9.20842 4.03127 9.20842 4.03113 9.20842 4.031C9.20842 4.03087 9.20842 4.03074 9.20842 4.03061C9.20842 4.03047 9.20842 4.03034 9.20842 4.03021C9.20842 4.03008 9.20842 4.02994 9.20842 4.02981C9.20842 4.02968 9.20842 4.02955 9.20842 4.02941C9.20842 4.02928 9.20842 4.02915 9.20842 4.02902C9.20842 4.02889 9.20842 4.02875 9.20842 4.02862C9.20842 4.02849 9.20842 4.02836 9.20842 4.02822C9.20842 4.02809 9.20842 4.02796 9.20842 4.02783C9.20842 4.0277 9.20842 4.02756 9.20842 4.02743C9.20842 4.0273 9.20842 4.02717 9.20842 4.02704C9.20842 4.0269 9.20842 4.02677 9.20842 4.02664C9.20842 4.02651 9.20842 4.02638 9.20842 4.02624C9.20842 4.02611 9.20842 4.02598 9.20842 4.02585C9.20842 4.02571 9.20842 4.02558 9.20842 4.02545C9.20842 4.02532 9.20842 4.02519 9.20842 4.02505C9.20842 4.02492 9.20842 4.02479 9.20842 4.02466C9.20842 4.02453 9.20842 4.02439 9.20842 4.02426C9.20842 4.02413 9.20842 4.024 9.20842 4.02387C9.20842 4.02374 9.20842 4.0236 9.20842 4.02347C9.20842 4.02334 9.20842 4.02321 9.20842 4.02308C9.20842 4.02294 9.20842 4.02281 9.20842 4.02268C9.20842 4.02255 9.20842 4.02242 9.20842 4.02228C9.20842 4.02215 9.20842 4.02202 9.20842 4.02189C9.20842 4.02176 9.20842 4.02163 9.20842 4.02149C9.20842 4.02136 9.20842 4.02123 9.20842 4.0211C9.20842 4.02097 9.20842 4.02083 9.20842 4.0207C9.20842 4.02057 9.20842 4.02044 9.20842 4.02031C9.20842 4.02018 9.20842 4.02004 9.20842 4.01991C9.20842 4.01978 9.20842 4.01965 9.20842 4.01952C9.20842 4.01939 9.20842 4.01925 9.20842 4.01912C9.20842 4.01899 9.20842 4.01886 9.20842 4.01873C9.20842 4.01859 9.20842 4.01846 9.20842 4.01833C9.20842 4.0182 9.20842 4.01807 9.20842 4.01794C9.20842 4.0178 9.20842 4.01767 9.20842 4.01754C9.20842 4.01741 9.20842 4.01728 9.20842 4.01715C9.20842 4.01702 9.20842 4.01688 9.20842 4.01675C9.20842 4.01662 9.20842 4.01649 9.20842 4.01636C9.20842 4.01623 9.20842 4.01609 9.20842 4.01596C9.20842 4.01583 9.20842 4.0157 9.20842 4.01557C9.20842 4.01544 9.20842 4.01531 9.20842 4.01517C9.20842 4.01504 9.20842 4.01491 9.20842 4.01478C9.20842 4.01465 9.20842 4.01452 9.20842 4.01438C9.20842 4.01425 9.20842 4.01412 9.20842 4.01399C9.20842 4.01386 9.20842 4.01373 9.20842 4.0136C9.20842 4.01346 9.20842 4.01333 9.20842 4.0132C9.20842 4.01307 9.20842 4.01294 9.20842 4.01281C9.20842 4.01268 9.20842 4.01254 9.20842 4.01241C9.20842 4.01228 9.20842 4.01215 9.20842 4.01202C9.20842 4.01189 9.20842 4.01176 9.20842 4.01162C9.20842 4.01149 9.20842 4.01136 9.20842 4.01123C9.20842 4.0111 9.20842 4.01097 9.20842 4.01084C9.20842 4.01071 9.20842 4.01057 9.20842 4.01044C9.20842 4.01031 9.20842 4.01018 9.20842 4.01005C9.20842 4.00992 9.20842 4.00979 9.20842 4.00965C9.20842 4.00952 9.20842 4.00939 9.20842 4.00926C9.20842 4.00913 9.20842 4.009 9.20842 4.00887C9.20842 4.00874 9.20842 4.00861 9.20842 4.00847C9.20842 4.00834 9.20842 4.00821 9.20842 4.00808C9.20842 4.00795 9.20842 4.00782 9.20842 4.00769C9.20842 4.00756 9.20842 4.00742 9.20842 4.00729C9.20842 4.00716 9.20842 4.00703 9.20842 4.0069C9.20842 4.00677 9.20842 4.00664 9.20842 4.00651C9.20842 4.00637 9.20842 4.00624 9.20842 4.00611C9.20842 4.00598 9.20842 4.00585 9.20842 4.00572C9.20842 4.00559 9.20842 4.00546 9.20842 4.00533C9.20842 4.00519 9.20842 4.00506 9.20842 4.00493C9.20842 4.0048 9.20842 4.00467 9.20842 4.00454C9.20842 4.00441 9.20842 4.00428 9.20842 4.00415C9.20842 4.00402 9.20842 4.00388 9.20842 4.00375C9.20842 4.00362 9.20842 4.00349 9.20842 4.00336C9.20842 4.00323 9.20842 4.0031 9.20842 4.00297C9.20842 4.00284 9.20842 4.0027 9.20842 4.00257C9.20842 4.00244 9.20842 4.00231 9.20842 4.00218C9.20842 4.00205 9.20842 4.00192 9.20842 4.00179C9.20842 4.00166 9.20842 4.00153 9.20842 4.00139C9.20842 4.00126 9.20842 4.00113 9.20842 4.001C9.20842 4.00087 9.20842 4.00074 9.20842 4.00061C9.20842 4.00048 9.20842 4.00035 9.20842 4.00022C9.20842 4.00009 9.20842 3.99995 9.20842 3.99982C9.20842 3.99969 9.20842 3.99956 9.20842 3.99943C9.20842 3.9993 9.20842 3.99917 9.20842 3.99904C9.20842 3.99891 9.20842 3.99878 9.20842 3.99865C9.20842 3.99851 9.20842 3.99838 9.20842 3.99825C9.20842 3.99812 9.20842 3.99799 9.20842 3.99786C9.20842 3.99773 9.20842 3.9976 9.20842 3.99747C9.20842 3.99734 9.20842 3.99721 9.20842 3.99708C9.20842 3.99694 9.20842 3.99681 9.20842 3.99668C9.20842 3.99655 9.20842 3.99642 9.20842 3.99629C9.20842 3.99616 9.20842 3.99603 9.20842 3.9959C9.20842 3.99577 9.20842 3.99564 9.20842 3.99551C9.20842 3.99538 9.20842 3.99524 9.20842 3.99511C9.20842 3.99498 9.20842 3.99485 9.20842 3.99472C9.20842 3.99459 9.20842 3.99446 9.20842 3.99433C9.20842 3.9942 9.20842 3.99407 9.20842 3.99394C9.20842 3.99381 9.20842 3.99368 9.20842 3.99355C9.20842 3.99341 9.20842 3.99328 9.20842 3.99315C9.20842 3.99302 9.20842 3.99289 9.20842 3.99276C9.20842 3.99263 9.20842 3.9925 9.20842 3.99237C9.20842 3.99224 9.20842 3.99211 9.20842 3.99198C9.20842 3.99185 9.20842 3.99172 9.20842 3.99158C9.20842 3.99145 9.20842 3.99132 9.20842 3.99119C9.20842 3.99106 9.20842 3.99093 9.20842 3.9908C9.20842 3.99067 9.20842 3.99054 9.20842 3.99041C9.20842 3.99028 9.20842 3.99015 9.20842 3.99002C9.20842 3.98989 9.20842 3.98976 9.20842 3.98963C9.20842 3.98949 9.20842 3.98936 9.20842 3.98923C9.20842 3.9891 9.20842 3.98897 9.20842 3.98884C9.20842 3.98871 9.20842 3.98858 9.20842 3.98845C9.20842 3.98832 9.20842 3.98819 9.20842 3.98806C9.20842 3.98793 9.20842 3.9878 9.20842 3.98767C9.20842 3.98754 9.20842 3.98741 9.20842 3.98728C9.20842 3.98714 9.20842 3.98701 9.20842 3.98688C9.20842 3.98675 9.20842 3.98662 9.20842 3.98649C9.20842 3.98636 9.20842 3.98623 9.20842 3.9861C9.20842 3.98597 9.20842 3.98584 9.20842 3.98571C9.20842 3.98558 9.20842 3.98545 9.20842 3.98532C9.20842 3.98519 9.20842 3.98506 9.20842 3.98493C9.20842 3.9848 9.20842 3.98466 9.20842 3.98453C9.20842 3.9844 9.20842 3.98427 9.20842 3.98414C9.20842 3.98401 9.20842 3.98388 9.20842 3.98375C9.20842 3.98362 9.20842 3.98349 9.20842 3.98336C9.20842 3.98323 9.20842 3.9831 9.20842 3.98297C9.20842 3.98284 9.20842 3.98271 9.20842 3.98258C9.20842 3.98245 9.20842 3.98232 9.20842 3.98219C9.20842 3.98206 9.20842 3.98192 9.20842 3.98179C9.20842 3.98166 9.20842 3.98153 9.20842 3.9814C9.20842 3.98127 9.20842 3.98114 9.20842 3.98101C9.20842 3.98088 9.20842 3.98075 9.20842 3.98062C9.20842 3.98049 9.20842 3.98036 9.20842 3.98023C9.20842 3.9801 9.20842 3.97997 9.20842 3.97984C9.20842 3.97971 9.20842 3.97958 9.20842 3.97945C9.20842 3.97932 9.20842 3.97919 9.20842 3.97906C9.20842 3.97893 9.20842 3.9788 9.20842 3.97866C9.20842 3.97853 9.20842 3.9784 9.20842 3.97827C9.20842 3.97814 9.20842 3.97801 9.20842 3.97788C9.20842 3.97775 9.20842 3.97762 9.20842 3.97749C9.20842 3.97736 9.20842 3.97723 9.20842 3.9771C9.20842 3.97697 9.20842 3.97684 9.20842 3.97671C9.20842 3.97658 9.20842 3.97645 9.20842 3.97632C9.20842 3.97619 9.20842 3.97606 9.20842 3.97593C9.20842 3.9758 9.20842 3.97567 9.20842 3.97554C9.20842 3.97541 9.20842 3.97528 9.20842 3.97515C9.20842 3.97502 9.20842 3.97488 9.20842 3.97475C9.20842 3.97462 9.20842 3.97449 9.20842 3.97436C9.20842 3.97423 9.20842 3.9741 9.20842 3.97397C9.20842 3.97384 9.20842 3.97371 9.20842 3.97358C9.20842 3.97345 9.20842 3.97332 9.20842 3.97319C9.20842 3.97306 9.20842 3.97293 9.20842 3.9728C9.20842 3.97267 9.20842 3.97254 9.20842 3.97241C9.20842 3.97228 9.20842 3.97215 9.20842 3.97202C9.20842 3.97189 9.20842 3.97176 9.20842 3.97163C9.20842 3.9715 9.20842 3.97137 9.20842 3.97124C9.20842 3.97111 9.20842 3.97098 9.20842 3.97085C9.20842 3.97072 9.20842 3.97059 9.20842 3.97045C9.20842 3.97032 9.20842 3.97019 9.20842 3.97006C9.20842 3.96993 9.20842 3.9698 9.20842 3.96967C9.20842 3.96954 9.20842 3.96941 9.20842 3.96928C9.20842 3.96915 9.20842 3.96902 9.20842 3.96889C9.20842 3.96876 9.20842 3.96863 9.20842 3.9685C9.20842 3.96837 9.20842 3.96824 9.20842 3.96811C9.20842 3.96798 9.20842 3.96785 9.20842 3.96772C9.20842 3.96759 9.20842 3.96746 9.20842 3.96733C9.20842 3.9672 9.20842 3.96707 9.20842 3.96694C9.20842 3.96681 9.20842 3.96668 9.20842 3.96655C9.20842 3.96642 9.20842 3.96629 9.20842 3.96616C9.20842 3.96603 9.20842 3.9659 9.20842 3.96577C9.20842 3.96564 9.20842 3.96551 9.20842 3.96538C9.20842 3.96525 9.20842 3.96511 9.20842 3.96498C9.20842 3.96485 9.20842 3.96472 9.20842 3.96459C9.20842 3.96446 9.20842 3.96433 9.20842 3.9642C9.20842 3.96407 9.20842 3.96394 9.20842 3.96381C9.20842 3.96368 9.20842 3.96355 9.20842 3.96342C9.20842 3.96329 9.20842 3.96316 9.20842 3.96303C9.20842 3.9629 9.20842 3.96277 9.20842 3.96264C9.20842 3.96251 9.20842 3.96238 9.20842 3.96225C9.20842 3.96212 9.20842 3.96199 9.20842 3.96186C9.20842 3.96173 9.20842 3.9616 9.20842 3.96147C9.20842 3.96134 9.20842 3.96121 9.20842 3.96108C9.20842 3.96095 9.20842 3.96082 9.20842 3.96069C9.20842 3.96056 9.20842 3.96043 9.20842 3.9603C9.20842 3.96017 9.20842 3.96004 9.20842 3.95991C9.20842 3.95978 9.20842 3.95965 9.20842 3.95952C9.20842 3.95939 9.20842 3.95925 9.20842 3.95912C9.20842 3.95899 9.20842 3.95886 9.20842 3.95873C9.20842 3.9586 9.20842 3.95847 9.20842 3.95834H6.20842C6.20842 3.95847 6.20842 3.9586 6.20842 3.95873C6.20842 3.95886 6.20842 3.95899 6.20842 3.95912C6.20842 3.95925 6.20842 3.95939 6.20842 3.95952C6.20842 3.95965 6.20842 3.95978 6.20842 3.95991C6.20842 3.96004 6.20842 3.96017 6.20842 3.9603C6.20842 3.96043 6.20842 3.96056 6.20842 3.96069C6.20842 3.96082 6.20842 3.96095 6.20842 3.96108C6.20842 3.96121 6.20842 3.96134 6.20842 3.96147C6.20842 3.9616 6.20842 3.96173 6.20842 3.96186C6.20842 3.96199 6.20842 3.96212 6.20842 3.96225C6.20842 3.96238 6.20842 3.96251 6.20842 3.96264C6.20842 3.96277 6.20842 3.9629 6.20842 3.96303C6.20842 3.96316 6.20842 3.96329 6.20842 3.96342C6.20842 3.96355 6.20842 3.96368 6.20842 3.96381C6.20842 3.96394 6.20842 3.96407 6.20842 3.9642C6.20842 3.96433 6.20842 3.96446 6.20842 3.96459C6.20842 3.96472 6.20842 3.96485 6.20842 3.96498C6.20842 3.96511 6.20842 3.96525 6.20842 3.96538C6.20842 3.96551 6.20842 3.96564 6.20842 3.96577C6.20842 3.9659 6.20842 3.96603 6.20842 3.96616C6.20842 3.96629 6.20842 3.96642 6.20842 3.96655C6.20842 3.96668 6.20842 3.96681 6.20842 3.96694C6.20842 3.96707 6.20842 3.9672 6.20842 3.96733C6.20842 3.96746 6.20842 3.96759 6.20842 3.96772C6.20842 3.96785 6.20842 3.96798 6.20842 3.96811C6.20842 3.96824 6.20842 3.96837 6.20842 3.9685C6.20842 3.96863 6.20842 3.96876 6.20842 3.96889C6.20842 3.96902 6.20842 3.96915 6.20842 3.96928C6.20842 3.96941 6.20842 3.96954 6.20842 3.96967C6.20842 3.9698 6.20842 3.96993 6.20842 3.97006C6.20842 3.97019 6.20842 3.97032 6.20842 3.97045C6.20842 3.97059 6.20842 3.97072 6.20842 3.97085C6.20842 3.97098 6.20842 3.97111 6.20842 3.97124C6.20842 3.97137 6.20842 3.9715 6.20842 3.97163C6.20842 3.97176 6.20842 3.97189 6.20842 3.97202C6.20842 3.97215 6.20842 3.97228 6.20842 3.97241C6.20842 3.97254 6.20842 3.97267 6.20842 3.9728C6.20842 3.97293 6.20842 3.97306 6.20842 3.97319C6.20842 3.97332 6.20842 3.97345 6.20842 3.97358C6.20842 3.97371 6.20842 3.97384 6.20842 3.97397C6.20842 3.9741 6.20842 3.97423 6.20842 3.97436C6.20842 3.97449 6.20842 3.97462 6.20842 3.97475C6.20842 3.97488 6.20842 3.97502 6.20842 3.97515C6.20842 3.97528 6.20842 3.97541 6.20842 3.97554C6.20842 3.97567 6.20842 3.9758 6.20842 3.97593C6.20842 3.97606 6.20842 3.97619 6.20842 3.97632C6.20842 3.97645 6.20842 3.97658 6.20842 3.97671C6.20842 3.97684 6.20842 3.97697 6.20842 3.9771C6.20842 3.97723 6.20842 3.97736 6.20842 3.97749C6.20842 3.97762 6.20842 3.97775 6.20842 3.97788C6.20842 3.97801 6.20842 3.97814 6.20842 3.97827C6.20842 3.9784 6.20842 3.97853 6.20842 3.97866C6.20842 3.9788 6.20842 3.97893 6.20842 3.97906C6.20842 3.97919 6.20842 3.97932 6.20842 3.97945C6.20842 3.97958 6.20842 3.97971 6.20842 3.97984C6.20842 3.97997 6.20842 3.9801 6.20842 3.98023C6.20842 3.98036 6.20842 3.98049 6.20842 3.98062C6.20842 3.98075 6.20842 3.98088 6.20842 3.98101C6.20842 3.98114 6.20842 3.98127 6.20842 3.9814C6.20842 3.98153 6.20842 3.98166 6.20842 3.98179C6.20842 3.98192 6.20842 3.98206 6.20842 3.98219C6.20842 3.98232 6.20842 3.98245 6.20842 3.98258C6.20842 3.98271 6.20842 3.98284 6.20842 3.98297C6.20842 3.9831 6.20842 3.98323 6.20842 3.98336C6.20842 3.98349 6.20842 3.98362 6.20842 3.98375C6.20842 3.98388 6.20842 3.98401 6.20842 3.98414C6.20842 3.98427 6.20842 3.9844 6.20842 3.98453C6.20842 3.98466 6.20842 3.9848 6.20842 3.98493C6.20842 3.98506 6.20842 3.98519 6.20842 3.98532C6.20842 3.98545 6.20842 3.98558 6.20842 3.98571C6.20842 3.98584 6.20842 3.98597 6.20842 3.9861C6.20842 3.98623 6.20842 3.98636 6.20842 3.98649C6.20842 3.98662 6.20842 3.98675 6.20842 3.98688C6.20842 3.98701 6.20842 3.98714 6.20842 3.98728C6.20842 3.98741 6.20842 3.98754 6.20842 3.98767C6.20842 3.9878 6.20842 3.98793 6.20842 3.98806C6.20842 3.98819 6.20842 3.98832 6.20842 3.98845C6.20842 3.98858 6.20842 3.98871 6.20842 3.98884C6.20842 3.98897 6.20842 3.9891 6.20842 3.98923C6.20842 3.98936 6.20842 3.98949 6.20842 3.98963C6.20842 3.98976 6.20842 3.98989 6.20842 3.99002C6.20842 3.99015 6.20842 3.99028 6.20842 3.99041C6.20842 3.99054 6.20842 3.99067 6.20842 3.9908C6.20842 3.99093 6.20842 3.99106 6.20842 3.99119C6.20842 3.99132 6.20842 3.99145 6.20842 3.99158C6.20842 3.99172 6.20842 3.99185 6.20842 3.99198C6.20842 3.99211 6.20842 3.99224 6.20842 3.99237C6.20842 3.9925 6.20842 3.99263 6.20842 3.99276C6.20842 3.99289 6.20842 3.99302 6.20842 3.99315C6.20842 3.99328 6.20842 3.99341 6.20842 3.99355C6.20842 3.99368 6.20842 3.99381 6.20842 3.99394C6.20842 3.99407 6.20842 3.9942 6.20842 3.99433C6.20842 3.99446 6.20842 3.99459 6.20842 3.99472C6.20842 3.99485 6.20842 3.99498 6.20842 3.99511C6.20842 3.99524 6.20842 3.99538 6.20842 3.99551C6.20842 3.99564 6.20842 3.99577 6.20842 3.9959C6.20842 3.99603 6.20842 3.99616 6.20842 3.99629C6.20842 3.99642 6.20842 3.99655 6.20842 3.99668C6.20842 3.99681 6.20842 3.99694 6.20842 3.99708C6.20842 3.99721 6.20842 3.99734 6.20842 3.99747C6.20842 3.9976 6.20842 3.99773 6.20842 3.99786C6.20842 3.99799 6.20842 3.99812 6.20842 3.99825C6.20842 3.99838 6.20842 3.99851 6.20842 3.99865C6.20842 3.99878 6.20842 3.99891 6.20842 3.99904C6.20842 3.99917 6.20842 3.9993 6.20842 3.99943C6.20842 3.99956 6.20842 3.99969 6.20842 3.99982C6.20842 3.99995 6.20842 4.00009 6.20842 4.00022C6.20842 4.00035 6.20842 4.00048 6.20842 4.00061C6.20842 4.00074 6.20842 4.00087 6.20842 4.001C6.20842 4.00113 6.20842 4.00126 6.20842 4.00139C6.20842 4.00153 6.20842 4.00166 6.20842 4.00179C6.20842 4.00192 6.20842 4.00205 6.20842 4.00218C6.20842 4.00231 6.20842 4.00244 6.20842 4.00257C6.20842 4.0027 6.20842 4.00284 6.20842 4.00297C6.20842 4.0031 6.20842 4.00323 6.20842 4.00336C6.20842 4.00349 6.20842 4.00362 6.20842 4.00375C6.20842 4.00388 6.20842 4.00402 6.20842 4.00415C6.20842 4.00428 6.20842 4.00441 6.20842 4.00454C6.20842 4.00467 6.20842 4.0048 6.20842 4.00493C6.20842 4.00506 6.20842 4.00519 6.20842 4.00533C6.20842 4.00546 6.20842 4.00559 6.20842 4.00572C6.20842 4.00585 6.20842 4.00598 6.20842 4.00611C6.20842 4.00624 6.20842 4.00637 6.20842 4.00651C6.20842 4.00664 6.20842 4.00677 6.20842 4.0069C6.20842 4.00703 6.20842 4.00716 6.20842 4.00729C6.20842 4.00742 6.20842 4.00756 6.20842 4.00769C6.20842 4.00782 6.20842 4.00795 6.20842 4.00808C6.20842 4.00821 6.20842 4.00834 6.20842 4.00847C6.20842 4.00861 6.20842 4.00874 6.20842 4.00887C6.20842 4.009 6.20842 4.00913 6.20842 4.00926C6.20842 4.00939 6.20842 4.00952 6.20842 4.00965C6.20842 4.00979 6.20842 4.00992 6.20842 4.01005C6.20842 4.01018 6.20842 4.01031 6.20842 4.01044C6.20842 4.01057 6.20842 4.01071 6.20842 4.01084C6.20842 4.01097 6.20842 4.0111 6.20842 4.01123C6.20842 4.01136 6.20842 4.01149 6.20842 4.01162C6.20842 4.01176 6.20842 4.01189 6.20842 4.01202C6.20842 4.01215 6.20842 4.01228 6.20842 4.01241C6.20842 4.01254 6.20842 4.01268 6.20842 4.01281C6.20842 4.01294 6.20842 4.01307 6.20842 4.0132C6.20842 4.01333 6.20842 4.01346 6.20842 4.0136C6.20842 4.01373 6.20842 4.01386 6.20842 4.01399C6.20842 4.01412 6.20842 4.01425 6.20842 4.01438C6.20842 4.01452 6.20842 4.01465 6.20842 4.01478C6.20842 4.01491 6.20842 4.01504 6.20842 4.01517C6.20842 4.01531 6.20842 4.01544 6.20842 4.01557C6.20842 4.0157 6.20842 4.01583 6.20842 4.01596C6.20842 4.01609 6.20842 4.01623 6.20842 4.01636C6.20842 4.01649 6.20842 4.01662 6.20842 4.01675C6.20842 4.01688 6.20842 4.01702 6.20842 4.01715C6.20842 4.01728 6.20842 4.01741 6.20842 4.01754C6.20842 4.01767 6.20842 4.0178 6.20842 4.01794C6.20842 4.01807 6.20842 4.0182 6.20842 4.01833C6.20842 4.01846 6.20842 4.01859 6.20842 4.01873C6.20842 4.01886 6.20842 4.01899 6.20842 4.01912C6.20842 4.01925 6.20842 4.01939 6.20842 4.01952C6.20842 4.01965 6.20842 4.01978 6.20842 4.01991C6.20842 4.02004 6.20842 4.02018 6.20842 4.02031C6.20842 4.02044 6.20842 4.02057 6.20842 4.0207C6.20842 4.02083 6.20842 4.02097 6.20842 4.0211C6.20842 4.02123 6.20842 4.02136 6.20842 4.02149C6.20842 4.02163 6.20842 4.02176 6.20842 4.02189C6.20842 4.02202 6.20842 4.02215 6.20842 4.02228C6.20842 4.02242 6.20842 4.02255 6.20842 4.02268C6.20842 4.02281 6.20842 4.02294 6.20842 4.02308C6.20842 4.02321 6.20842 4.02334 6.20842 4.02347C6.20842 4.0236 6.20842 4.02374 6.20842 4.02387C6.20842 4.024 6.20842 4.02413 6.20842 4.02426C6.20842 4.02439 6.20842 4.02453 6.20842 4.02466C6.20842 4.02479 6.20842 4.02492 6.20842 4.02505C6.20842 4.02519 6.20842 4.02532 6.20842 4.02545C6.20842 4.02558 6.20842 4.02571 6.20842 4.02585C6.20842 4.02598 6.20842 4.02611 6.20842 4.02624C6.20842 4.02638 6.20842 4.02651 6.20842 4.02664C6.20842 4.02677 6.20842 4.0269 6.20842 4.02704C6.20842 4.02717 6.20842 4.0273 6.20842 4.02743C6.20842 4.02756 6.20842 4.0277 6.20842 4.02783C6.20842 4.02796 6.20842 4.02809 6.20842 4.02822C6.20842 4.02836 6.20842 4.02849 6.20842 4.02862C6.20842 4.02875 6.20842 4.02889 6.20842 4.02902C6.20842 4.02915 6.20842 4.02928 6.20842 4.02941C6.20842 4.02955 6.20842 4.02968 6.20842 4.02981C6.20842 4.02994 6.20842 4.03008 6.20842 4.03021C6.20842 4.03034 6.20842 4.03047 6.20842 4.03061C6.20842 4.03074 6.20842 4.03087 6.20842 4.031C6.20842 4.03113 6.20842 4.03127 6.20842 4.0314C6.20842 4.03153 6.20842 4.03166 6.20842 4.0318C6.20842 4.03193 6.20842 4.03206 6.20842 4.03219C6.20842 4.03233 6.20842 4.03246 6.20842 4.03259C6.20842 4.03272 6.20842 4.03286 6.20842 4.03299C6.20842 4.03312 6.20842 4.03325 6.20842 4.03339C6.20842 4.03352 6.20842 4.03365 6.20842 4.03378C6.20842 4.03392 6.20842 4.03405 6.20842 4.03418C6.20842 4.03431 6.20842 4.03445 6.20842 4.03458C6.20842 4.03471 6.20842 4.03484 6.20842 4.03498C6.20842 4.03511 6.20842 4.03524 6.20842 4.03537C6.20842 4.03551 6.20842 4.03564 6.20842 4.03577C6.20842 4.0359 6.20842 4.03604 6.20842 4.03617C6.20842 4.0363 6.20842 4.03643 6.20842 4.03657C6.20842 4.0367 6.20842 4.03683 6.20842 4.03697C6.20842 4.0371 6.20842 4.03723 6.20842 4.03736C6.20842 4.0375 6.20842 4.03763 6.20842 4.03776C6.20842 4.03789 6.20842 4.03803 6.20842 4.03816C6.20842 4.03829 6.20842 4.03843 6.20842 4.03856C6.20842 4.03869 6.20842 4.03882 6.20842 4.03896C6.20842 4.03909 6.20842 4.03922 6.20842 4.03936C6.20842 4.03949 6.20842 4.03962 6.20842 4.03975C6.20842 4.03989 6.20842 4.04002 6.20842 4.04015C6.20842 4.04029 6.20842 4.04042 6.20842 4.04055C6.20842 4.04068 6.20842 4.04082 6.20842 4.04095C6.20842 4.04108 6.20842 4.04122 6.20842 4.04135C6.20842 4.04148 6.20842 4.04161 6.20842 4.04175C6.20842 4.04188 6.20842 4.04201 6.20842 4.04215C6.20842 4.04228 6.20842 4.04241 6.20842 4.04255C6.20842 4.04268 6.20842 4.04281 6.20842 4.04295C6.20842 4.04308 6.20842 4.04321 6.20842 4.04334C6.20842 4.04348 6.20842 4.04361 6.20842 4.04374C6.20842 4.04388 6.20842 4.04401 6.20842 4.04414C6.20842 4.04428 6.20842 4.04441 6.20842 4.04454C6.20842 4.04468 6.20842 4.04481 6.20842 4.04494C6.20842 4.04508 6.20842 4.04521 6.20842 4.04534C6.20842 4.04548 6.20842 4.04561 6.20842 4.04574C6.20842 4.04587 6.20842 4.04601 6.20842 4.04614C6.20842 4.04627 6.20842 4.04641 6.20842 4.04654C6.20842 4.04667 6.20842 4.04681 6.20842 4.04694C6.20842 4.04707 6.20842 4.04721 6.20842 4.04734C6.20842 4.04747 6.20842 4.04761 6.20842 4.04774C6.20842 4.04788 6.20842 4.04801 6.20842 4.04814C6.20842 4.04828 6.20842 4.04841 6.20842 4.04854C6.20842 4.04868 6.20842 4.04881 6.20842 4.04894C6.20842 4.04908 6.20842 4.04921 6.20842 4.04934C6.20842 4.04948 6.20842 4.04961 6.20842 4.04974C6.20842 4.04988 6.20842 4.05001 6.20842 4.05014C6.20842 4.05028 6.20842 4.05041 6.20842 4.05055C6.20842 4.05068 6.20842 4.05081 6.20842 4.05095C6.20842 4.05108 6.20842 4.05121 6.20842 4.05135C6.20842 4.05148 6.20842 4.05161 6.20842 4.05175C6.20842 4.05188 6.20842 4.05202 6.20842 4.05215C6.20842 4.05228 6.20842 4.05242 6.20842 4.05255C6.20842 4.05268 6.20842 4.05282 6.20842 4.05295C6.20842 4.05309 6.20842 4.05322 6.20842 4.05335C6.20842 4.05349 6.20842 4.05362 6.20842 4.05375C6.20842 4.05389 6.20842 4.05402 6.20842 4.05416C6.20842 4.05429 6.20842 4.05442 6.20842 4.05456C6.20842 4.05469 6.20842 4.05483 6.20842 4.05496C6.20842 4.05509 6.20842 4.05523 6.20842 4.05536C6.20842 4.0555 6.20842 4.05563 6.20842 4.05576C6.20842 4.0559 6.20842 4.05603 6.20842 4.05617C6.20842 4.0563 6.20842 4.05643 6.20842 4.05657C6.20842 4.0567 6.20842 4.05684 6.20842 4.05697C6.20842 4.0571 6.20842 4.05724 6.20842 4.05737C6.20842 4.05751 6.20842 4.05764 6.20842 4.05777C6.20842 4.05791 6.20842 4.05804 6.20842 4.05818C6.20842 4.05831 6.20842 4.05845 6.20842 4.05858C6.20842 4.05871 6.20842 4.05885 6.20842 4.05898C6.20842 4.05912 6.20842 4.05925 6.20842 4.05939C6.20842 4.05952 6.20842 4.05965 6.20842 4.05979C6.20842 4.05992 6.20842 4.06006 6.20842 4.06019C6.20842 4.06033 6.20842 4.06046 6.20842 4.06059C6.20842 4.06073 6.20842 4.06086 6.20842 4.061C6.20842 4.06113 6.20842 4.06127 6.20842 4.0614C6.20842 4.06154 6.20842 4.06167 6.20842 4.0618C6.20842 4.06194 6.20842 4.06207 6.20842 4.06221C6.20842 4.06234 6.20842 4.06248 6.20842 4.06261C6.20842 4.06275 6.20842 4.06288 6.20842 4.06301C6.20842 4.06315 6.20842 4.06328 6.20842 4.06342C6.20842 4.06355 6.20842 4.06369 6.20842 4.06382C6.20842 4.06396 6.20842 4.06409 6.20842 4.06423C6.20842 4.06436 6.20842 4.0645 6.20842 4.06463C6.20842 4.06476 6.20842 4.0649 6.20842 4.06503C6.20842 4.06517 6.20842 4.0653 6.20842 4.06544C6.20842 4.06557 6.20842 4.06571 6.20842 4.06584C6.20842 4.06598 6.20842 4.06611 6.20842 4.06625C6.20842 4.06638 6.20842 4.06652 6.20842 4.06665C6.20842 4.06679 6.20842 4.06692 6.20842 4.06706C6.20842 4.06719 6.20842 4.06733 6.20842 4.06746C6.20842 4.0676 6.20842 4.06773 6.20842 4.06787C6.20842 4.068 6.20842 4.06814 6.20842 4.06827C6.20842 4.06841 6.20842 4.06854 6.20842 4.06868C6.20842 4.06881 6.20842 4.06895 6.20842 4.06908C6.20842 4.06922 6.20842 4.06935 6.20842 4.06949C6.20842 4.06962 6.20842 4.06976 6.20842 4.06989C6.20842 4.07003 6.20842 4.07016 6.20842 4.0703C6.20842 4.07043 6.20842 4.07057 6.20842 4.0707C6.20842 4.07084 6.20842 4.07097 6.20842 4.07111C6.20842 4.07124 6.20842 4.07138 6.20842 4.07151C6.20842 4.07165 6.20842 4.07179 6.20842 4.07192C6.20842 4.07206 6.20842 4.07219 6.20842 4.07233C6.20842 4.07246 6.20842 4.0726 6.20842 4.07273C6.20842 4.07287 6.20842 4.073 6.20842 4.07314C6.20842 4.07327 6.20842 4.07341 6.20842 4.07355C6.20842 4.07368 6.20842 4.07382 6.20842 4.07395C6.20842 4.07409 6.20842 4.07422 6.20842 4.07436C6.20842 4.07449 6.20842 4.07463 6.20842 4.07477C6.20842 4.0749 6.20842 4.07504 6.20842 4.07517C6.20842 4.07531 6.20842 4.07544 6.20842 4.07558C6.20842 4.07571 6.20842 4.07585 6.20842 4.07599C6.20842 4.07612 6.20842 4.07626 6.20842 4.07639C6.20842 4.07653 6.20842 4.07666 6.20842 4.0768C6.20842 4.07694 6.20842 4.07707 6.20842 4.07721C6.20842 4.07734 6.20842 4.07748 6.20842 4.07761C6.20842 4.07775 6.20842 4.07789 6.20842 4.07802C6.20842 4.07816 6.20842 4.07829 6.20842 4.07843C6.20842 4.07857 6.20842 4.0787 6.20842 4.07884C6.20842 4.07897 6.20842 4.07911 6.20842 4.07925C6.20842 4.07938 6.20842 4.07952 6.20842 4.07965C6.20842 4.07979 6.20842 4.07993 6.20842 4.08006C6.20842 4.0802 6.20842 4.08033 6.20842 4.08047C6.20842 4.08061 6.20842 4.08074 6.20842 4.08088C6.20842 4.08101 6.20842 4.08115 6.20842 4.08129C6.20842 4.08142 6.20842 4.08156 6.20842 4.0817C6.20842 4.08183 6.20842 4.08197 6.20842 4.0821C6.20842 4.08224 6.20842 4.08238 6.20842 4.08251C6.20842 4.08265 6.20842 4.08279 6.20842 4.08292C6.20842 4.08306 6.20842 4.08319 6.20842 4.08333C6.20842 4.08347 6.20842 4.0836 6.20842 4.08374C6.20842 4.08388 6.20842 4.08401 6.20842 4.08415C6.20842 4.08429 6.20842 4.08442 6.20842 4.08456C6.20842 4.0847 6.20842 4.08483 6.20842 4.08497C6.20842 4.0851 6.20842 4.08524 6.20842 4.08538C6.20842 4.08551 6.20842 4.08565 6.20842 4.08579C6.20842 4.08592 6.20842 4.08606 6.20842 4.0862C6.20842 4.08633 6.20842 4.08647 6.20842 4.08661C6.20842 4.08674 6.20842 4.08688 6.20842 4.08702C6.20842 4.08715 6.20842 4.08729 6.20842 4.08743C6.20842 4.08756 6.20842 4.0877 6.20842 4.08784C6.20842 4.08798 6.20842 4.08811 6.20842 4.08825C6.20842 4.08839 6.20842 4.08852 6.20842 4.08866C6.20842 4.0888 6.20842 4.08893 6.20842 4.08907C6.20842 4.08921 6.20842 4.08934 6.20842 4.08948C6.20842 4.08962 6.20842 4.08976 6.20842 4.08989C6.20842 4.09003 6.20842 4.09017 6.20842 4.0903C6.20842 4.09044 6.20842 4.09058 6.20842 4.09071C6.20842 4.09085 6.20842 4.09099 6.20842 4.09113C6.20842 4.09126 6.20842 4.0914 6.20842 4.09154C6.20842 4.09167 6.20842 4.09181 6.20842 4.09195C6.20842 4.09209 6.20842 4.09222 6.20842 4.09236C6.20842 4.0925 6.20842 4.09264 6.20842 4.09277C6.20842 4.09291 6.20842 4.09305 6.20842 4.09318C6.20842 4.09332 6.20842 4.09346 6.20842 4.0936C6.20842 4.09373 6.20842 4.09387 6.20842 4.09401C6.20842 4.09415 6.20842 4.09428 6.20842 4.09442C6.20842 4.09456 6.20842 4.0947 6.20842 4.09483C6.20842 4.09497 6.20842 4.09511 6.20842 4.09525C6.20842 4.09538 6.20842 4.09552 6.20842 4.09566C6.20842 4.0958 6.20842 4.09593 6.20842 4.09607C6.20842 4.09621 6.20842 4.09635 6.20842 4.09648C6.20842 4.09662 6.20842 4.09676 6.20842 4.0969C6.20842 4.09704 6.20842 4.09717 6.20842 4.09731C6.20842 4.09745 6.20842 4.09759 6.20842 4.09772C6.20842 4.09786 6.20842 4.098 6.20842 4.09814C6.20842 4.09828 6.20842 4.09841 6.20842 4.09855C6.20842 4.09869 6.20842 4.09883 6.20842 4.09897C6.20842 4.0991 6.20842 4.09924 6.20842 4.09938C6.20842 4.09952 6.20842 4.09966 6.20842 4.09979C6.20842 4.09993 6.20842 4.10007 6.20842 4.10021C6.20842 4.10035 6.20842 4.10048 6.20842 4.10062C6.20842 4.10076 6.20842 4.1009 6.20842 4.10104C6.20842 4.10117 6.20842 4.10131 6.20842 4.10145C6.20842 4.10159 6.20842 4.10173 6.20842 4.10187C6.20842 4.102 6.20842 4.10214 6.20842 4.10228C6.20842 4.10242 6.20842 4.10256 6.20842 4.1027C6.20842 4.10283 6.20842 4.10297 6.20842 4.10311C6.20842 4.10325 6.20842 4.10339 6.20842 4.10353C6.20842 4.10366 6.20842 4.1038 6.20842 4.10394C6.20842 4.10408 6.20842 4.10422 6.20842 4.10436C6.20842 4.10449 6.20842 4.10463 6.20842 4.10477C6.20842 4.10491 6.20842 4.10505 6.20842 4.10519C6.20842 4.10533 6.20842 4.10547 6.20842 4.1056C6.20842 4.10574 6.20842 4.10588 6.20842 4.10602C6.20842 4.10616 6.20842 4.1063 6.20842 4.10644C6.20842 4.10657 6.20842 4.10671 6.20842 4.10685C6.20842 4.10699 6.20842 4.10713 6.20842 4.10727C6.20842 4.10741 6.20842 4.10755 6.20842 4.10769C6.20842 4.10782 6.20842 4.10796 6.20842 4.1081C6.20842 4.10824 6.20842 4.10838 6.20842 4.10852C6.20842 4.10866 6.20842 4.1088 6.20842 4.10894C6.20842 4.10908 6.20842 4.10921 6.20842 4.10935C6.20842 4.10949 6.20842 4.10963 6.20842 4.10977C6.20842 4.10991 6.20842 4.11005 6.20842 4.11019C6.20842 4.11033 6.20842 4.11047 6.20842 4.11061C6.20842 4.11074 6.20842 4.11088 6.20842 4.11102C6.20842 4.11116 6.20842 4.1113 6.20842 4.11144C6.20842 4.11158 6.20842 4.11172 6.20842 4.11186C6.20842 4.112 6.20842 4.11214 6.20842 4.11228C6.20842 4.11242 6.20842 4.11256 6.20842 4.1127C6.20842 4.11284 6.20842 4.11297 6.20842 4.11311C6.20842 4.11325 6.20842 4.11339 6.20842 4.11353C6.20842 4.11367 6.20842 4.11381 6.20842 4.11395C6.20842 4.11409 6.20842 4.11423 6.20842 4.11437C6.20842 4.11451 6.20842 4.11465 6.20842 4.11479C6.20842 4.11493 6.20842 4.11507 6.20842 4.11521C6.20842 4.11535 6.20842 4.11549 6.20842 4.11563C6.20842 4.11577 6.20842 4.11591 6.20842 4.11605C6.20842 4.11619 6.20842 4.11633 6.20842 4.11647C6.20842 4.11661 6.20842 4.11675 6.20842 4.11689C6.20842 4.11703 6.20842 4.11717 6.20842 4.11731C6.20842 4.11745 6.20842 4.11759 6.20842 4.11773C6.20842 4.11787 6.20842 4.11801 6.20842 4.11815C6.20842 4.11829 6.20842 4.11843 6.20842 4.11857C6.20842 4.11871 6.20842 4.11885 6.20842 4.11899C6.20842 4.11913 6.20842 4.11927 6.20842 4.11941C6.20842 4.11955 6.20842 4.11969 6.20842 4.11983C6.20842 4.11997 6.20842 4.12011 6.20842 4.12025C6.20842 4.12039 6.20842 4.12053 6.20842 4.12067C6.20842 4.12081 6.20842 4.12095 6.20842 4.12109C6.20842 4.12123 6.20842 4.12137 6.20842 4.12151C6.20842 4.12165 6.20842 4.12179 6.20842 4.12194C6.20842 4.12208 6.20842 4.12222 6.20842 4.12236C6.20842 4.1225 6.20842 4.12264 6.20842 4.12278C6.20842 4.12292 6.20842 4.12306 6.20842 4.1232C6.20842 4.12334 6.20842 4.12348 6.20842 4.12362C6.20842 4.12376 6.20842 4.1239 6.20842 4.12405C6.20842 4.12419 6.20842 4.12433 6.20842 4.12447C6.20842 4.12461 6.20842 4.12475 6.20842 4.12489C6.20842 4.12503 6.20842 4.12517 6.20842 4.12531C6.20842 4.12545 6.20842 4.1256 6.20842 4.12574C6.20842 4.12588 6.20842 4.12602 6.20842 4.12616C6.20842 4.1263 6.20842 4.12644 6.20842 4.12658C6.20842 4.12672 6.20842 4.12686 6.20842 4.12701C6.20842 4.12715 6.20842 4.12729 6.20842 4.12743C6.20842 4.12757 6.20842 4.12771 6.20842 4.12785C6.20842 4.12799 6.20842 4.12814 6.20842 4.12828C6.20842 4.12842 6.20842 4.12856 6.20842 4.1287C6.20842 4.12884 6.20842 4.12898 6.20842 4.12913C6.20842 4.12927 6.20842 4.12941 6.20842 4.12955C6.20842 4.12969 6.20842 4.12983 6.20842 4.12997C6.20842 4.13012 6.20842 4.13026 6.20842 4.1304C6.20842 4.13054 6.20842 4.13068 6.20842 4.13082C6.20842 4.13097 6.20842 4.13111 6.20842 4.13125C6.20842 4.13139 6.20842 4.13153 6.20842 4.13167C6.20842 4.13182 6.20842 4.13196 6.20842 4.1321C6.20842 4.13224 6.20842 4.13238 6.20842 4.13252C6.20842 4.13267 6.20842 4.13281 6.20842 4.13295C6.20842 4.13309 6.20842 4.13323 6.20842 4.13338C6.20842 4.13352 6.20842 4.13366 6.20842 4.1338C6.20842 4.13394 6.20842 4.13409 6.20842 4.13423C6.20842 4.13437 6.20842 4.13451 6.20842 4.13465C6.20842 4.1348 6.20842 4.13494 6.20842 4.13508C6.20842 4.13522 6.20842 4.13537 6.20842 4.13551C6.20842 4.13565 6.20842 4.13579 6.20842 4.13593C6.20842 4.13608 6.20842 4.13622 6.20842 4.13636C6.20842 4.1365 6.20842 4.13665 6.20842 4.13679C6.20842 4.13693 6.20842 4.13707 6.20842 4.13722C6.20842 4.13736 6.20842 4.1375 6.20842 4.13764C6.20842 4.13779 6.20842 4.13793 6.20842 4.13807C6.20842 4.13821 6.20842 4.13836 6.20842 4.1385C6.20842 4.13864 6.20842 4.13878 6.20842 4.13893C6.20842 4.13907 6.20842 4.13921 6.20842 4.13935C6.20842 4.1395 6.20842 4.13964 6.20842 4.13978C6.20842 4.13993 6.20842 4.14007 6.20842 4.14021C6.20842 4.14035 6.20842 4.1405 6.20842 4.14064C6.20842 4.14078 6.20842 4.14093 6.20842 4.14107C6.20842 4.14121 6.20842 4.14135 6.20842 4.1415C6.20842 4.14164 6.20842 4.14178 6.20842 4.14193C6.20842 4.14207 6.20842 4.14221 6.20842 4.14236C6.20842 4.1425 6.20842 4.14264 6.20842 4.14279C6.20842 4.14293 6.20842 4.14307 6.20842 4.14321C6.20842 4.14336 6.20842 4.1435 6.20842 4.14364C6.20842 4.14379 6.20842 4.14393 6.20842 4.14407C6.20842 4.14422 6.20842 4.14436 6.20842 4.1445C6.20842 4.14465 6.20842 4.14479 6.20842 4.14493C6.20842 4.14508 6.20842 4.14522 6.20842 4.14537C6.20842 4.14551 6.20842 4.14565 6.20842 4.1458C6.20842 4.14594 6.20842 4.14608 6.20842 4.14623C6.20842 4.14637 6.20842 4.14651 6.20842 4.14666C6.20842 4.1468 6.20842 4.14695 6.20842 4.14709C6.20842 4.14723 6.20842 4.14738 6.20842 4.14752C6.20842 4.14766 6.20842 4.14781 6.20842 4.14795C6.20842 4.1481 6.20842 4.14824 6.20842 4.14838C6.20842 4.14853 6.20842 4.14867 6.20842 4.14882C6.20842 4.14896 6.20842 4.1491 6.20842 4.14925C6.20842 4.14939 6.20842 4.14954 6.20842 4.14968C6.20842 4.14982 6.20842 4.14997 6.20842 4.15011C6.20842 4.15026 6.20842 4.1504 6.20842 4.15054C6.20842 4.15069 6.20842 4.15083 6.20842 4.15098C6.20842 4.15112 6.20842 4.15127 6.20842 4.15141C6.20842 4.15155 6.20842 4.1517 6.20842 4.15184C6.20842 4.15199 6.20842 4.15213 6.20842 4.15228C6.20842 4.15242 6.20842 4.15257 6.20842 4.15271C6.20842 4.15285 6.20842 4.153 6.20842 4.15314C6.20842 4.15329 6.20842 4.15343 6.20842 4.15358C6.20842 4.15372 6.20842 4.15387 6.20842 4.15401C6.20842 4.15416 6.20842 4.1543 6.20842 4.15445C6.20842 4.15459 6.20842 4.15474 6.20842 4.15488C6.20842 4.15502 6.20842 4.15517 6.20842 4.15531C6.20842 4.15546 6.20842 4.1556 6.20842 4.15575C6.20842 4.15589 6.20842 4.15604 6.20842 4.15618C6.20842 4.15633 6.20842 4.15647 6.20842 4.15662C6.20842 4.15676 6.20842 4.15691 6.20842 4.15705C6.20842 4.1572 6.20842 4.15734 6.20842 4.15749C6.20842 4.15764 6.20842 4.15778 6.20842 4.15793C6.20842 4.15807 6.20842 4.15822 6.20842 4.15836C6.20842 4.15851 6.20842 4.15865 6.20842 4.1588C6.20842 4.15894 6.20842 4.15909 6.20842 4.15923C6.20842 4.15938 6.20842 4.15952 6.20842 4.15967C6.20842 4.15982 6.20842 4.15996 6.20842 4.16011C6.20842 4.16025 6.20842 4.1604 6.20842 4.16054C6.20842 4.16069 6.20842 4.16083 6.20842 4.16098C6.20842 4.16113 6.20842 4.16127 6.20842 4.16142C6.20842 4.16156 6.20842 4.16171 6.20842 4.16185C6.20842 4.162 6.20842 4.16215 6.20842 4.16229C6.20842 4.16244 6.20842 4.16258 6.20842 4.16273C6.20842 4.16288 6.20842 4.16302 6.20842 4.16317C6.20842 4.16331 6.20842 4.16346 6.20842 4.16361C6.20842 4.16375 6.20842 4.1639 6.20842 4.16404C6.20842 4.16419 6.20842 4.16434 6.20842 4.16448C6.20842 4.16463 6.20842 4.16477 6.20842 4.16492C6.20842 4.16507 6.20842 4.16521 6.20842 4.16536C6.20842 4.16551 6.20842 4.16565 6.20842 4.1658C6.20842 4.16594 6.20842 4.16609 6.20842 4.16624C6.20842 4.16638 6.20842 4.16653 6.20842 4.16668H9.20842ZM7.70842 2.45834H5.83342V5.45834H7.70842V2.45834ZM5.83342 2.45834C4.42999 2.45834 3.29175 3.59658 3.29175 5.00001H6.29175C6.29175 5.25344 6.08684 5.45834 5.83342 5.45834V2.45834ZM3.29175 5.00001V6.04168H6.29175V5.00001H3.29175Z" fill="#8F9BB3" mask="url(#path-2-inside-1_280_462)"/>
<path d="M11.6667 11.4583C11.3251 11.4583 11.0417 11.175 11.0417 10.8333V6.66666C11.0417 6.32499 11.3251 6.04166 11.6667 6.04166C12.0084 6.04166 12.2917 6.32499 12.2917 6.66666V10.8333C12.2917 11.175 12.0084 11.4583 11.6667 11.4583Z" fill="#8F9BB3"/>
<path d="M15 11.4583C14.6583 11.4583 14.375 11.175 14.375 10.8333V6.66666C14.375 6.32499 14.6583 6.04166 15 6.04166C15.3417 6.04166 15.625 6.32499 15.625 6.66666V10.8333C15.625 11.175 15.3417 11.4583 15 11.4583Z" fill="#8F9BB3"/>
<path d="M15.0001 18.9583H11.6667C11.3251 18.9583 11.0417 18.675 11.0417 18.3333V15C11.0417 14.2 11.7001 13.5417 12.5001 13.5417H14.1667C14.9667 13.5417 15.6251 14.2 15.6251 15V18.3333C15.6251 18.675 15.3417 18.9583 15.0001 18.9583ZM12.2917 17.7083H14.3751V15C14.3751 14.8833 14.2834 14.7917 14.1667 14.7917H12.5001C12.3834 14.7917 12.2917 14.8833 12.2917 15V17.7083Z" fill="#8F9BB3"/>
<path d="M5 14.7917C4.65833 14.7917 4.375 14.5083 4.375 14.1667V10.8333C4.375 10.4917 4.65833 10.2083 5 10.2083C5.34167 10.2083 5.625 10.4917 5.625 10.8333V14.1667C5.625 14.5083 5.34167 14.7917 5 14.7917Z" fill="#8F9BB3"/>
<path d="M15.8333 18.9583H10.8333C8.81659 18.9583 7.70825 17.85 7.70825 15.8333V4.16666C7.70825 2.14999 8.81659 1.04166 10.8333 1.04166H15.8333C17.8499 1.04166 18.9583 2.14999 18.9583 4.16666V15.8333C18.9583 17.85 17.8499 18.9583 15.8333 18.9583ZM10.8333 2.29166C9.51659 2.29166 8.95825 2.84999 8.95825 4.16666V15.8333C8.95825 17.15 9.51659 17.7083 10.8333 17.7083H15.8333C17.1499 17.7083 17.7083 17.15 17.7083 15.8333V4.16666C17.7083 2.84999 17.1499 2.29166 15.8333 2.29166H10.8333Z" fill="#8F9BB3"/>
</svg>
