<svg width="69" height="105" viewBox="0 0 69 105" fill="none" xmlns="http://www.w3.org/2000/svg">
<path opacity="0.4" d="M106.279 65.4542C105.56 57.5479 103.452 49.1146 88.0709 49.1146H26.9292C11.5479 49.1146 9.48753 57.5479 8.72086 65.4542L6.03752 94.6354C5.70211 98.2771 6.90003 101.919 9.39169 104.65C11.9313 107.429 15.525 109.01 19.3584 109.01H28.3667C36.1292 109.01 37.6146 104.554 38.5729 101.631L39.5313 98.7563C40.6334 95.45 40.9209 94.6354 45.2334 94.6354H69.7667C74.0792 94.6354 74.2229 95.1146 75.4688 98.7563L76.4271 101.631C77.3854 104.554 78.8709 109.01 86.6334 109.01H95.6417C99.4271 109.01 103.069 107.429 105.608 104.65C108.1 101.919 109.298 98.2771 108.963 94.6354L106.279 65.4542Z" fill="#7356C0"/>
<path d="M100.625 34.7396H95.8333C95.7854 34.7396 95.7854 34.7396 95.7375 34.7396L93.9167 26.0667C92.1917 17.6813 88.5979 9.96667 74.3187 9.96667H61.0938H53.9062H40.6812C26.4021 9.96667 22.8083 17.6813 21.0833 26.0667L19.2625 34.7396C19.2146 34.7396 19.2146 34.7396 19.1667 34.7396H14.375C12.4104 34.7396 10.7812 36.3687 10.7812 38.3333C10.7812 40.2979 12.4104 41.9271 14.375 41.9271H17.7771L15.7646 51.5104C18.3521 50.025 21.9458 49.1146 26.9292 49.1146H88.0708C93.0542 49.1146 96.6479 50.025 99.2354 51.5104L97.2229 41.9271H100.625C102.59 41.9271 104.219 40.2979 104.219 38.3333C104.219 36.3687 102.59 34.7396 100.625 34.7396Z" fill="#7356C0"/>
<path d="M43.125 75.4688H28.75C26.7854 75.4688 25.1562 73.8396 25.1562 71.875C25.1562 69.9104 26.7854 68.2812 28.75 68.2812H43.125C45.0896 68.2812 46.7188 69.9104 46.7188 71.875C46.7188 73.8396 45.0896 75.4688 43.125 75.4688Z" fill="#7356C0"/>
<path d="M86.25 75.4688H71.875C69.9104 75.4688 68.2812 73.8396 68.2812 71.875C68.2812 69.9104 69.9104 68.2812 71.875 68.2812H86.25C88.2146 68.2812 89.8438 69.9104 89.8438 71.875C89.8438 73.8396 88.2146 75.4688 86.25 75.4688Z" fill="#7356C0"/>
</svg>
