<svg width="16" height="16" viewBox="0 0 16 16" fill="none" xmlns="http://www.w3.org/2000/svg">
<path d="M8.00008 14.1667C7.87341 14.1667 7.74674 14.12 7.64674 14.02L3.60008 9.97334C3.40674 9.78001 3.40674 9.46001 3.60008 9.26667C3.79341 9.07334 4.11341 9.07334 4.30674 9.26667L8.00008 12.96L11.6934 9.26667C11.8867 9.07334 12.2067 9.07334 12.4001 9.26667C12.5934 9.46001 12.5934 9.78001 12.4001 9.97334L8.35341 14.02C8.25341 14.12 8.12674 14.1667 8.00008 14.1667Z" fill="#8F9BB3"/>
<path d="M8 14.0533C7.72667 14.0533 7.5 13.8267 7.5 13.5533V2.33333C7.5 2.05999 7.72667 1.83333 8 1.83333C8.27333 1.83333 8.5 2.05999 8.5 2.33333V13.5533C8.5 13.8267 8.27333 14.0533 8 14.0533Z" fill="#8F9BB3"/>
</svg>
