<svg width="20" height="20" viewBox="0 0 20 20" fill="none" xmlns="http://www.w3.org/2000/svg">
<path opacity="0.4" d="M14.6752 8.99167H17.0835C17.2657 8.99167 17.4168 9.14281 17.4168 9.32501V13.6917C17.4168 15.0565 16.9445 16.0797 16.2162 16.7637C15.483 17.4523 14.4514 17.8333 13.2752 17.8333H6.72516C5.54894 17.8333 4.51734 17.4523 3.78413 16.7637C3.05587 16.0797 2.5835 15.0565 2.5835 13.6917V6.30834C2.5835 4.94349 3.05587 3.92033 3.78413 3.23634C4.51734 2.5477 5.54894 2.16667 6.72516 2.16667H10.2585C10.4407 2.16667 10.5918 2.31781 10.5918 2.50001V4.90834C10.5918 7.15948 12.424 8.99167 14.6752 8.99167Z" fill="#7356C0" stroke="#7356C0"/>
<path d="M13.1667 1.84167C12.8251 1.5 12.2334 1.73334 12.2334 2.20834V5.11667C12.2334 6.33334 13.2667 7.34167 14.5251 7.34167C15.3167 7.35 16.4167 7.35 17.3584 7.35C17.8334 7.35 18.0834 6.79167 17.7501 6.45834C16.5501 5.25 14.4001 3.075 13.1667 1.84167Z" fill="#7356C0"/>
<path d="M10.2334 12.2667C9.9917 12.025 9.5917 12.025 9.35003 12.2667L8.75003 12.8667V9.375C8.75003 9.03333 8.4667 8.75 8.12503 8.75C7.78337 8.75 7.50003 9.03333 7.50003 9.375V12.8667L6.90003 12.2667C6.65837 12.025 6.25837 12.025 6.0167 12.2667C5.77503 12.5083 5.77503 12.9083 6.0167 13.15L7.68337 14.8167C7.6917 14.825 7.70003 14.825 7.70003 14.8333C7.75003 14.8833 7.8167 14.925 7.88337 14.9583C7.9667 14.9833 8.0417 15 8.12503 15C8.20837 15 8.28337 14.9833 8.35837 14.95C8.43337 14.9167 8.50003 14.875 8.5667 14.8167L10.2334 13.15C10.475 12.9083 10.475 12.5083 10.2334 12.2667Z" fill="#7356C0"/>
</svg>
