<svg width="20" height="20" viewBox="0 0 20 20" fill="none" xmlns="http://www.w3.org/2000/svg">
<path fill-rule="evenodd" clip-rule="evenodd" d="M18.0249 0.0881595C17.785 0.199855 17.7794 0.207516 17.2361 1.16705C16.6451 2.21085 16.6804 2.10568 16.8542 2.30774C17.0289 2.51073 17.2786 3.02059 17.3484 3.31656C17.3763 3.43478 17.3997 3.69311 17.4004 3.89063C17.4011 4.08819 17.4046 4.24647 17.4081 4.24237C17.4732 4.16854 19.1457 1.14255 19.1804 1.03601C19.2379 0.859362 19.2105 0.634211 19.1066 0.430673C19.0143 0.249919 18.9314 0.175312 18.712 0.0757706C18.4808 -0.029086 18.2684 -0.025256 18.0249 0.0881595ZM14.5325 2.01642C13.9757 2.12077 13.3733 2.63583 13.1603 3.18981C13.0522 3.47089 13.0167 3.98439 13.0844 4.2886C13.4003 5.70848 15.1621 6.24887 16.2115 5.24782C16.5627 4.91285 16.7189 4.61079 16.7985 4.11265C16.941 3.22065 16.3095 2.28225 15.4089 2.04768C15.1934 1.99156 14.7497 1.97574 14.5325 2.01642ZM11.1894 5.09974C11.1034 5.13132 8.5885 6.69077 5.60069 8.56517C0.349731 11.8594 0.165304 11.979 0.0778385 12.1491C-0.0390553 12.3762 -0.0233054 12.6368 0.118445 12.8216C0.172768 12.8924 0.913409 13.7092 1.7643 14.6367C3.09906 16.0917 3.33555 16.3324 3.48711 16.3903C3.69397 16.4693 3.87124 16.4476 4.05934 16.3201C4.17702 16.2404 12.8505 5.61676 12.8503 5.55274C12.8501 5.51913 12.266 5.18178 12.0602 5.09642C11.8766 5.02025 11.4008 5.02209 11.1894 5.09974ZM8.97185 11.281C6.48914 14.3356 4.50464 16.7435 4.42581 16.797C4.12641 17 3.72648 17.0798 3.43188 16.9953L3.29584 16.9562L2.59186 17.6839C2.20471 18.0841 1.84719 18.4787 1.7974 18.5608C1.41327 19.1945 1.97874 20.0677 2.72665 19.9958C3.10645 19.9593 3.14541 19.9247 5.30273 17.703L7.34968 15.5951L8.31497 14.1069C8.84589 13.2884 9.29154 12.6074 9.30534 12.5936C9.32941 12.5695 9.88015 12.8759 9.88015 12.9134C9.88015 12.9484 10.311 15.6475 10.3301 15.7323C10.3464 15.8048 10.1652 15.9705 9.12795 16.8313C7.72291 17.9971 7.70537 18.0134 7.60454 18.239C7.36762 18.7691 7.66273 19.3947 8.22734 19.5593C8.51784 19.6441 8.80349 19.5925 9.06291 19.4086C9.1616 19.3387 9.89321 18.7404 10.6888 18.079C12.2216 16.8047 12.3066 16.7169 12.3622 16.3481C12.3774 16.2475 12.3108 15.7325 12.1703 14.8652L11.955 13.5365L12.4043 12.7792C12.6515 12.3628 12.8471 12.0156 12.8392 12.0076C12.8312 11.9996 12.6062 11.9772 12.3392 11.9577C11.797 11.9182 11.6372 11.8663 11.4004 11.6524C11.1472 11.4235 11.036 11.1702 11.0344 10.8177C11.0331 10.5324 11.0475 10.4858 11.4406 9.49907C11.6647 8.93645 11.8557 8.48384 11.8652 8.49322C11.8746 8.50264 11.8164 8.98436 11.7359 9.56371C11.6492 10.1877 11.5998 10.6716 11.6147 10.7509C11.6583 10.9835 11.8447 11.2293 12.0546 11.3311C12.2362 11.4193 12.3072 11.4256 13.6516 11.4746C14.4254 11.5028 15.2549 11.521 15.495 11.515C15.9099 11.5048 15.9398 11.4983 16.1004 11.3853C16.3629 11.2007 16.4514 11.0153 16.4372 10.68C16.4218 10.3154 16.2959 10.112 16.0034 9.97845C15.8136 9.89184 15.727 9.88328 14.6091 9.84088C13.9535 9.81602 13.4104 9.78945 13.4023 9.78183C13.3941 9.77421 13.4374 9.39883 13.4985 8.94759C13.5596 8.49639 13.6146 8.1323 13.6209 8.13851C13.6271 8.14477 13.6465 8.39153 13.664 8.68691C13.6875 9.08398 13.7104 9.2332 13.7518 9.25942C13.7827 9.27892 13.9574 9.29491 14.1401 9.29495L14.4723 9.29499L14.7735 8.7766C15.1777 8.08106 15.2092 8.00118 15.2075 7.67418C15.2059 7.35668 15.1265 7.11308 14.9547 6.89899C14.8887 6.81657 14.8498 6.73532 14.8684 6.71847C14.887 6.70159 15.0253 6.60565 15.1757 6.50524L15.4493 6.32265L15.1561 6.34833C14.6339 6.39402 14.0113 6.24207 13.6007 5.96877C13.5083 5.90721 13.4204 5.85758 13.4053 5.8584C13.3903 5.85922 11.3952 8.29941 8.97185 11.281Z" fill="#3F2B89"/>
</svg>
