<svg width="16" height="20" viewBox="0 0 16 20" fill="none" xmlns="http://www.w3.org/2000/svg">
<path fill-rule="evenodd" clip-rule="evenodd" d="M9.51764 0.021543C8.99776 0.115762 8.42666 0.559764 8.2003 1.04575C7.62588 2.27893 8.51814 3.69737 9.86829 3.69737C10.3614 3.69737 10.8134 3.50741 11.1708 3.15004C12.153 2.16786 11.7652 0.537285 10.442 0.0850334C10.2104 0.00590505 9.77063 -0.0243154 9.51764 0.021543ZM8.16109 4.21116C7.93035 4.2494 7.85016 4.28087 4.87648 5.50005L2.90218 6.30947L2.89209 8.50243L2.88197 10.6954H3.82013H4.7583L4.76854 9.12748L4.77874 7.55961L5.55564 7.2492C5.98295 7.07847 6.34055 6.9468 6.35036 6.95661C6.36573 6.97197 4.95827 14.3703 4.93403 14.4014C4.9291 14.4078 3.91865 14.2176 2.68864 13.979C1.4586 13.7403 0.432704 13.5515 0.408817 13.5594C0.384969 13.5674 0.283204 13.9723 0.18273 14.4591L0 15.3443L0.200049 15.3843C0.626654 15.4696 3.87201 16.1032 4.44643 16.2134C4.77972 16.2773 5.37596 16.4004 5.7714 16.4869C6.22064 16.5852 6.49931 16.6296 6.51421 16.6053C6.52731 16.584 6.73142 15.6676 6.96779 14.5691C7.20416 13.4706 7.40855 12.5762 7.42203 12.5816C7.43552 12.587 7.88867 13.003 8.429 13.506L9.4115 14.4205V17.2103V20H10.3302H11.249V16.472V12.9439L10.3043 11.9987L9.35966 11.0535L9.62203 9.73087C9.76629 9.00347 9.89272 8.38385 9.90293 8.35398C9.91497 8.31876 10.0647 8.44445 10.3282 8.71084C11.521 9.91661 12.9116 10.5516 14.6405 10.6798L15.0021 10.7066V9.76269V8.81882L14.7968 8.81867C14.2754 8.81828 13.4414 8.60779 12.9218 8.3455C12.269 8.01597 11.5601 7.41547 11.157 6.85054C11.0548 6.7073 10.7424 6.20755 10.4627 5.73997C10.168 5.24718 9.87865 4.8126 9.77442 4.70622C9.5472 4.47427 9.21454 4.29596 8.87473 4.22395C8.57972 4.16143 8.47283 4.15952 8.16109 4.21116Z" fill="#3F2B89"/>
</svg>
