<svg width="20" height="20" viewBox="0 0 20 20" fill="none" xmlns="http://www.w3.org/2000/svg">
<path d="M10.3083 1.79168L17.8083 4.79166C18.1 4.90833 18.3333 5.25832 18.3333 5.56666V8.33333C18.3333 8.79166 17.9583 9.16666 17.5 9.16666H2.49996C2.04163 9.16666 1.66663 8.79166 1.66663 8.33333V5.56666C1.66663 5.25832 1.89996 4.90833 2.19163 4.79166L9.69163 1.79168C9.8583 1.72502 10.1416 1.72502 10.3083 1.79168Z" stroke="#8F9BB3" stroke-width="1.5" stroke-miterlimit="10" stroke-linecap="round" stroke-linejoin="round"/>
<path d="M18.3333 18.3333H1.66663V15.8333C1.66663 15.375 2.04163 15 2.49996 15H17.5C17.9583 15 18.3333 15.375 18.3333 15.8333V18.3333Z" stroke="#8F9BB3" stroke-width="1.5" stroke-miterlimit="10" stroke-linecap="round" stroke-linejoin="round"/>
<path d="M3.33337 15V9.16667" stroke="#8F9BB3" stroke-width="1.5" stroke-miterlimit="10" stroke-linecap="round" stroke-linejoin="round"/>
<path d="M6.66663 15V9.16667" stroke="#8F9BB3" stroke-width="1.5" stroke-miterlimit="10" stroke-linecap="round" stroke-linejoin="round"/>
<path d="M10 15V9.16667" stroke="#8F9BB3" stroke-width="1.5" stroke-miterlimit="10" stroke-linecap="round" stroke-linejoin="round"/>
<path d="M13.3334 15V9.16667" stroke="#8F9BB3" stroke-width="1.5" stroke-miterlimit="10" stroke-linecap="round" stroke-linejoin="round"/>
<path d="M16.6666 15V9.16667" stroke="#8F9BB3" stroke-width="1.5" stroke-miterlimit="10" stroke-linecap="round" stroke-linejoin="round"/>
<path d="M0.833374 18.3333H19.1667" stroke="#8F9BB3" stroke-width="1.5" stroke-miterlimit="10" stroke-linecap="round" stroke-linejoin="round"/>
<path d="M10 7.08333C10.6904 7.08333 11.25 6.52368 11.25 5.83333C11.25 5.14297 10.6904 4.58333 10 4.58333C9.30964 4.58333 8.75 5.14297 8.75 5.83333C8.75 6.52368 9.30964 7.08333 10 7.08333Z" stroke="#8F9BB3" stroke-width="1.5" stroke-miterlimit="10" stroke-linecap="round" stroke-linejoin="round"/>
</svg>
