<svg width="24" height="24" viewBox="0 0 24 24" fill="none" xmlns="http://www.w3.org/2000/svg">
<path d="M15.98 4.62H17.02C18.61 4.62 19.25 5.22 19.25 6.74V18.62H13.75V6.74C13.76 5.22 14.4 4.62 15.98 4.62Z" fill="#3F2B89"/>
<path opacity="0.4" d="M7.48 9.62H8.52C10.11 9.62 10.75 10.23 10.75 11.74V18.62H5.25V11.74C5.25 10.23 5.9 9.62 7.48 9.62Z" fill="#3F2B89"/>
<path d="M21.25 17.88H2.75C2.34 17.88 2 18.22 2 18.63C2 19.04 2.34 19.38 2.75 19.38H21.25C21.66 19.38 22 19.04 22 18.62C22 18.2 21.66 17.88 21.25 17.88Z" fill="#3F2B89"/>
</svg>
