<svg width="24" height="24" viewBox="0 0 24 24" fill="none" xmlns="http://www.w3.org/2000/svg">
<path d="M20.2933 7.0835L20.6468 6.72995L20.2933 6.3764L17.1033 3.1864C17.0085 3.09166 17.0085 2.92824 17.1033 2.8335C17.198 2.73877 17.3614 2.73877 17.4562 2.8335L21.1762 6.55354C21.2235 6.60082 21.2497 6.66404 21.2497 6.72995C21.2497 6.79591 21.2235 6.85917 21.1762 6.90642C21.1762 6.90643 21.1762 6.90643 21.1762 6.90643L17.4635 10.6191C17.3972 10.6788 17.3283 10.7 17.2798 10.7C17.2152 10.7 17.1546 10.6777 17.1033 10.6264C17.0085 10.5317 17.0085 10.3682 17.1033 10.2735L20.2933 7.0835Z" stroke="#8F9BB3"/>
<path d="M21 6.97998H3C2.86614 6.97998 2.75 6.86384 2.75 6.72998C2.75 6.59612 2.86614 6.47998 3 6.47998H21C21.1339 6.47998 21.25 6.59612 21.25 6.72998C21.25 6.86384 21.1339 6.97998 21 6.97998Z" stroke="#8F9BB3"/>
<path d="M6.71997 21.75C6.52997 21.75 6.34 21.68 6.19 21.53L2.46997 17.81C2.32997 17.67 2.25 17.48 2.25 17.28C2.25 17.08 2.32997 16.89 2.46997 16.75L6.19 13.03C6.48 12.74 6.96 12.74 7.25 13.03C7.54 13.32 7.54 13.8 7.25 14.09L4.06 17.28L7.25 20.4699C7.54 20.7599 7.54 21.24 7.25 21.53C7.11 21.68 6.91997 21.75 6.71997 21.75Z" fill="#8F9BB3"/>
<path d="M21 18.02H3C2.59 18.02 2.25 17.68 2.25 17.27C2.25 16.86 2.59 16.52 3 16.52H21C21.41 16.52 21.75 16.86 21.75 17.27C21.75 17.68 21.41 18.02 21 18.02Z" fill="#8F9BB3"/>
</svg>
