<svg width="24" height="24" viewBox="0 0 24 24" fill="none" xmlns="http://www.w3.org/2000/svg">
<path d="M5.51001 6C5.23615 6 5.01001 5.77386 5.01001 5.5C5.01001 5.22287 5.22941 5 5.51001 5H5.52001C5.79387 5 6.02001 5.22614 6.02001 5.5C6.02001 5.77062 5.79711 6 5.51001 6Z" stroke="#3F2B89"/>
<path d="M18.51 19C18.2362 19 18.01 18.7739 18.01 18.5C18.01 18.2229 18.2294 18 18.51 18H18.52C18.7939 18 19.02 18.2261 19.02 18.5C19.02 18.7706 18.7971 19 18.51 19Z" stroke="#3F2B89"/>
<path d="M5.46997 9.75C3.12997 9.75 1.21997 7.84 1.21997 5.5C1.21997 3.16 3.12997 1.25 5.46997 1.25C7.80997 1.25 9.71997 3.16 9.71997 5.5C9.71997 7.84 7.81997 9.75 5.46997 9.75ZM5.46997 2.75C3.94997 2.75 2.71997 3.98 2.71997 5.5C2.71997 7.02 3.94997 8.25 5.46997 8.25C6.98997 8.25 8.21997 7.02 8.21997 5.5C8.21997 3.98 6.98997 2.75 5.46997 2.75Z" fill="#3F2B89"/>
<path d="M19.97 22.75H16.97C15.45 22.75 14.22 21.52 14.22 20V17C14.22 15.48 15.45 14.25 16.97 14.25H19.97C21.49 14.25 22.72 15.48 22.72 17V20C22.72 21.52 21.49 22.75 19.97 22.75ZM16.97 15.75C16.28 15.75 15.72 16.31 15.72 17V20C15.72 20.69 16.28 21.25 16.97 21.25H19.97C20.66 21.25 21.22 20.69 21.22 20V17C21.22 16.31 20.66 15.75 19.97 15.75H16.97Z" fill="#3F2B89"/>
<path d="M11.9999 19.75H9.31994C8.15994 19.75 7.14994 19.05 6.74994 17.97C6.33994 16.89 6.63994 15.7 7.50994 14.93L15.4999 7.94C15.9799 7.52 15.9899 6.95 15.8499 6.56C15.6999 6.17 15.3199 5.75 14.6799 5.75H11.9999C11.5899 5.75 11.2499 5.41 11.2499 5C11.2499 4.59 11.5899 4.25 11.9999 4.25H14.6799C15.8399 4.25 16.8499 4.95 17.2499 6.03C17.6599 7.11 17.3599 8.3 16.4899 9.07L8.49994 16.06C8.01994 16.48 8.00994 17.05 8.14994 17.44C8.29994 17.83 8.67994 18.25 9.31994 18.25H11.9999C12.4099 18.25 12.7499 18.59 12.7499 19C12.7499 19.41 12.4099 19.75 11.9999 19.75Z" fill="#3F2B89"/>
</svg>
