<svg width="24" height="24" viewBox="0 0 24 24" fill="none" xmlns="http://www.w3.org/2000/svg">
<path opacity="0.4" d="M22 12.88V11.12C22 10.08 21.15 9.22 20.1 9.22C18.29 9.22 17.55 7.94 18.46 6.37C18.98 5.47 18.67 4.3 17.76 3.78L16.03 2.79C15.24 2.32 14.22 2.6 13.75 3.39L13.64 3.58C12.74 5.15 11.26 5.15 10.35 3.58L10.24 3.39C9.77 2.6 8.75 2.32 7.96 2.79L6.23 3.78C5.32 4.3 5.01 5.47 5.53 6.37C6.44 7.94 5.7 9.22 3.89 9.22C2.85 9.22 1.99 10.07 1.99 11.12V12.88C1.99 13.92 2.84 14.78 3.89 14.78C5.7 14.78 6.44 16.06 5.53 17.63C5.01 18.54 5.32 19.7 6.23 20.22L7.96 21.21C8.75 21.68 9.77 21.4 10.24 20.61L10.35 20.42C11.25 18.85 12.73 18.85 13.64 20.42L13.75 20.61C14.22 21.4 15.24 21.68 16.03 21.21L17.76 20.22C18.67 19.7 18.98 18.53 18.46 17.63C17.55 16.06 18.29 14.78 20.1 14.78C21.15 14.78 22 13.92 22 12.88Z" fill="#3F2B89"/>
<path d="M12 15.25C10.2051 15.25 8.75 13.7949 8.75 12C8.75 10.2051 10.2051 8.75 12 8.75C13.7949 8.75 15.25 10.2051 15.25 12C15.25 13.7949 13.7949 15.25 12 15.25Z" fill="#3F2B89"/>
</svg>
