<svg width="10" height="10" viewBox="0 0 10 10" fill="none" xmlns="http://www.w3.org/2000/svg">
<path fill-rule="evenodd" clip-rule="evenodd" d="M6.17842 4.99999L9.75592 1.42249C10.0818 1.09666 10.0818 0.569995 9.75592 0.244161C9.43009 -0.081672 8.90342 -0.081672 8.57759 0.244161L5.00009 3.82166L1.42259 0.244161C1.09675 -0.081672 0.570086 -0.081672 0.244253 0.244161C-0.0815804 0.569995 -0.0815804 1.09666 0.244253 1.42249L3.82175 4.99999L0.244253 8.57749C-0.0815804 8.90333 -0.0815804 9.42999 0.244253 9.75583C0.406753 9.91833 0.620086 9.99999 0.83342 9.99999C1.04675 9.99999 1.26009 9.91833 1.42259 9.75583L5.00009 6.17833L8.57759 9.75583C8.74009 9.91833 8.95342 9.99999 9.16675 9.99999C9.38009 9.99999 9.59342 9.91833 9.75592 9.75583C10.0818 9.42999 10.0818 8.90333 9.75592 8.57749L6.17842 4.99999Z" fill="#3F2B89"/>
</svg>
