<svg width="16" height="16" viewBox="0 0 16 16" fill="none" xmlns="http://www.w3.org/2000/svg">
<path opacity="0.99" d="M6.87505 10.7292C6.78749 10.7293 6.70078 10.7121 6.61989 10.6786C6.53901 10.6451 6.46554 10.5959 6.40372 10.5339L4.52872 8.65891C4.40501 8.53363 4.33588 8.3645 4.33643 8.18844C4.33698 8.01237 4.40716 7.84368 4.53166 7.71918C4.65615 7.59468 4.82484 7.52449 5.00091 7.52393C5.17697 7.52337 5.34611 7.59249 5.47139 7.7162L6.87503 9.11985L10.5287 5.4662C10.654 5.34249 10.8231 5.27337 10.9992 5.27393C11.1753 5.27449 11.344 5.34468 11.4685 5.46918C11.5929 5.59368 11.6631 5.76237 11.6637 5.93844C11.6642 6.1145 11.5951 6.28363 11.4714 6.40891L7.34639 10.5339C7.28456 10.5959 7.2111 10.6451 7.13021 10.6786C7.04932 10.7121 6.96261 10.7293 6.87505 10.7292Z" fill="#6CAF11"/>
<path d="M7.99992 1.33337C6.68138 1.33337 5.39245 1.72437 4.29612 2.45691C3.19979 3.18945 2.34531 4.23064 1.84072 5.44882C1.33614 6.66699 1.20412 8.00744 1.46135 9.30064C1.71859 10.5938 2.35353 11.7817 3.28588 12.7141C4.21823 13.6464 5.40611 14.2814 6.69932 14.5386C7.99253 14.7958 9.33297 14.6638 10.5511 14.1592C11.7693 13.6547 12.8105 12.8002 13.5431 11.7038C14.2756 10.6075 14.6666 9.31858 14.6666 8.00004C14.6646 6.23255 13.9615 4.53803 12.7117 3.28823C11.4619 2.03842 9.76741 1.3354 7.99992 1.33337V1.33337ZM11.4713 6.40889L7.34625 10.5339C7.28437 10.5958 7.21089 10.6449 7.13001 10.6784C7.04913 10.712 6.96245 10.7292 6.8749 10.7292C6.78736 10.7292 6.70067 10.712 6.61979 10.6784C6.53892 10.6449 6.46544 10.5958 6.40355 10.5339L4.52859 8.65889C4.40487 8.53362 4.33575 8.36449 4.3363 8.18842C4.33685 8.01236 4.40703 7.84366 4.53152 7.71916C4.65602 7.59466 4.82471 7.52447 5.00078 7.52392C5.17684 7.52336 5.34597 7.59248 5.47125 7.71619L6.8749 9.11983L10.5286 5.46619C10.6539 5.34248 10.823 5.27336 10.9991 5.27392C11.1751 5.27447 11.3438 5.34466 11.4683 5.46916C11.5928 5.59366 11.663 5.76236 11.6635 5.93842C11.6641 6.11449 11.595 6.28362 11.4713 6.40889Z" fill="#87CC19" fill-opacity="0.16"/>
</svg>
