<svg width="13" height="20" viewBox="0 0 13 20" fill="none" xmlns="http://www.w3.org/2000/svg">
<path fill-rule="evenodd" clip-rule="evenodd" d="M6.58354 0.0413733C5.41642 0.307461 4.80732 1.58712 5.33547 2.66347C5.89247 3.79873 7.39709 4.04906 8.29093 3.15523C8.88678 2.55937 9.00554 1.7178 8.60459 0.931967C8.49896 0.724906 8.1622 0.385993 7.92258 0.245542C7.54391 0.0236264 7.01506 -0.0570168 6.58354 0.0413733ZM5.28324 4.21242C5.05789 4.24987 4.93706 4.29725 1.97472 5.51014L0.0202096 6.3104L0.0101242 8.50348L0 10.6965H0.938049H1.8761L1.88634 9.12994L1.89654 7.56336L2.67229 7.23128C3.09896 7.04865 3.45683 6.90797 3.46754 6.91868C3.48212 6.93326 1.0672 19.4344 0.957516 19.912L0.937345 20H1.91116C2.65501 20 2.88904 19.9885 2.9021 19.9511C2.91152 19.9243 3.27842 18.2533 3.7174 16.2379C4.15643 14.2225 4.52712 12.5778 4.54119 12.583C4.55527 12.5882 5.0082 13.0032 5.54777 13.5052L6.52874 14.4181V17.209V20H7.4669H8.40507V16.4919V12.9839L7.44099 12.0192L6.4769 11.0545L6.73963 9.73216C6.88411 9.00481 7.01095 8.38003 7.02151 8.34371C7.03625 8.29298 7.09144 8.33371 7.25984 8.51962C8.18687 9.54293 9.40496 10.251 10.7309 10.5373C11.0898 10.6148 11.731 10.6965 11.9803 10.6965H12.1186V9.75835V8.82019L11.9134 8.82003C11.8006 8.81995 11.5495 8.79411 11.3555 8.76268C10.4043 8.60839 9.44444 8.10687 8.75039 7.40156C8.36317 7.00804 8.14954 6.70415 7.56299 5.71251C7.30237 5.27188 7.01799 4.84326 6.91135 4.73037C6.67943 4.48488 6.34302 4.30026 5.99203 4.22587C5.69787 4.16356 5.58967 4.16149 5.28324 4.21242Z" fill="#3F2B89"/>
</svg>
