<svg width="44" height="40" viewBox="0 0 44 40" fill="none" xmlns="http://www.w3.org/2000/svg">
<path d="M6.23201 39.41C4.67401 39.41 3.37567 38.918 2.33701 37.934C1.32567 36.9227 0.820007 35.638 0.820007 34.08C0.820007 32.522 1.32567 31.2647 2.33701 30.308C3.37567 29.324 4.67401 28.832 6.23201 28.832C7.79001 28.832 9.07467 29.324 10.086 30.308C11.1247 31.2647 11.644 32.522 11.644 34.08C11.644 35.638 11.1247 36.9227 10.086 37.934C9.07467 38.918 7.79001 39.41 6.23201 39.41Z" fill="white"/>
<path d="M20.2486 39.1L6.71856 0.477997H14.9186L28.4486 39.1H20.2486Z" fill="white"/>
<path d="M35.023 39.1L21.493 0.477997H29.693L43.223 39.1H35.023Z" fill="white"/>
</svg>
