<svg width="20" height="20" viewBox="0 0 20 20" fill="none" xmlns="http://www.w3.org/2000/svg">
<path d="M12.5 18.9583H7.50004C3.82504 18.9583 2.70837 17.8417 2.70837 14.1667V5.83333C2.70837 2.15833 3.82504 1.04166 7.50004 1.04166H12.5C16.175 1.04166 17.2917 2.15833 17.2917 5.83333V14.1667C17.2917 17.8417 16.175 18.9583 12.5 18.9583ZM7.50004 2.29166C4.51671 2.29166 3.95837 2.85833 3.95837 5.83333V14.1667C3.95837 17.1417 4.51671 17.7083 7.50004 17.7083H12.5C15.4834 17.7083 16.0417 17.1417 16.0417 14.1667V5.83333C16.0417 2.85833 15.4834 2.29166 12.5 2.29166H7.50004Z" fill="#8F9BB3"/>
<path d="M11.6667 5.20833H8.33337C7.99171 5.20833 7.70837 4.925 7.70837 4.58333C7.70837 4.24167 7.99171 3.95833 8.33337 3.95833H11.6667C12.0084 3.95833 12.2917 4.24167 12.2917 4.58333C12.2917 4.925 12.0084 5.20833 11.6667 5.20833Z" fill="#8F9BB3"/>
<path d="M10 16.55C8.94171 16.55 8.08337 15.6917 8.08337 14.6333C8.08337 13.575 8.94171 12.7167 10 12.7167C11.0584 12.7167 11.9167 13.575 11.9167 14.6333C11.9167 15.6917 11.0584 16.55 10 16.55ZM10 13.9583C9.63337 13.9583 9.33337 14.2583 9.33337 14.625C9.33337 14.9917 9.63337 15.2917 10 15.2917C10.3667 15.2917 10.6667 14.9917 10.6667 14.625C10.6667 14.2583 10.3667 13.9583 10 13.9583Z" fill="#8F9BB3"/>
</svg>
