<svg width="20" height="20" viewBox="0 0 20 20" fill="none" xmlns="http://www.w3.org/2000/svg">
<path opacity="0.4" d="M16.9915 7.09856V7.1V13.7333C16.9915 15.0757 16.5938 16.0864 15.9192 16.761C15.2446 17.4356 14.2339 17.8333 12.8915 17.8333H6.2665C4.92861 17.8333 3.91778 17.4358 3.24193 16.76C2.56612 16.0842 2.1665 15.0713 2.1665 13.725V7.1C2.1665 5.75826 2.56589 4.74745 3.2417 4.07254C3.91761 3.39751 4.9286 3 6.2665 3H12.8998C14.2378 3 15.2486 3.39756 15.9234 4.0723C16.5979 4.74683 16.9954 5.75715 16.9915 7.09856Z" fill="#7356C0" stroke="#7356C0"/>
<path d="M17.5167 2.48336C16.0251 0.98336 14.5667 0.950026 13.0334 2.48336L12.0917 3.41669C12.0084 3.50003 11.9834 3.61669 12.0167 3.72503C12.6001 5.76669 14.2334 7.40003 16.2751 7.98336C16.3001 7.99169 16.3417 7.99169 16.3667 7.99169C16.4501 7.99169 16.5334 7.95836 16.5917 7.90003L17.5167 6.96669C18.2751 6.20836 18.6501 5.48336 18.6501 4.74169C18.6501 3.99169 18.2751 3.25003 17.5167 2.48336Z" fill="#7356C0"/>
<path d="M14.8831 8.68335C14.6581 8.57501 14.4414 8.46668 14.2414 8.34168C14.0748 8.24168 13.9081 8.13335 13.7498 8.01668C13.6164 7.93335 13.4664 7.80835 13.3164 7.68335C13.2998 7.67501 13.2498 7.63335 13.1831 7.56668C12.9248 7.35835 12.6498 7.07501 12.3914 6.76668C12.3748 6.75001 12.3248 6.70001 12.2831 6.62501C12.1998 6.53335 12.0748 6.37501 11.9664 6.20001C11.8748 6.08335 11.7664 5.91668 11.6664 5.74168C11.5414 5.53335 11.4331 5.32501 11.3331 5.10835C11.2248 4.87501 11.1414 4.65835 11.0664 4.45001L6.58309 8.93335C6.29142 9.22501 6.00809 9.77501 5.94976 10.1833L5.59142 12.6667C5.51642 13.1917 5.65809 13.6833 5.98309 14.0083C6.25809 14.2833 6.63309 14.425 7.04976 14.425C7.14143 14.425 7.23309 14.4167 7.32476 14.4083L9.79976 14.0583C10.2081 14 10.7581 13.725 11.0498 13.425L15.5331 8.94168C15.3248 8.87501 15.1164 8.78335 14.8831 8.68335Z" fill="#7356C0"/>
</svg>
