<svg width="20" height="20" viewBox="0 0 20 20" fill="none" xmlns="http://www.w3.org/2000/svg">
<path d="M9.99977 13.5C9.54446 13.5 9.0897 13.3245 8.74499 12.9798L3.31166 7.54648C3.29013 7.52495 3.27686 7.49422 3.27686 7.45837C3.27686 7.42251 3.29013 7.39178 3.31166 7.37025C3.33319 7.34873 3.36392 7.33545 3.39977 7.33545C3.43562 7.33545 3.46636 7.34873 3.48789 7.37025L8.92122 12.8036C9.51648 13.3988 10.4831 13.3988 11.0783 12.8036L16.5117 7.37025C16.5332 7.34873 16.5639 7.33545 16.5998 7.33545C16.6356 7.33545 16.6664 7.34873 16.6879 7.37025C16.7094 7.39178 16.7227 7.42251 16.7227 7.45837C16.7227 7.49422 16.7094 7.52495 16.6879 7.54648L11.2546 12.9798C10.9098 13.3245 10.4551 13.5 9.99977 13.5Z" fill="#2E3A59" stroke="#2E3A59"/>
</svg>
