<svg width="20" height="20" viewBox="0 0 20 20" fill="none" xmlns="http://www.w3.org/2000/svg">
<mask id="path-1-inside-1_599_1339" fill="white">
<path d="M11.1668 14.5167H9.07513C7.70846 14.5167 6.60013 13.3667 6.60013 11.9501C6.60013 11.6084 6.88346 11.3251 7.22513 11.3251C7.5668 11.3251 7.85013 11.6084 7.85013 11.9501C7.85013 12.6751 8.40013 13.2667 9.07513 13.2667H11.1668C11.7085 13.2667 12.1585 12.7834 12.1585 12.2001C12.1585 11.4751 11.9001 11.3334 11.4751 11.1834L8.1168 10.0001C7.4668 9.77507 6.5918 9.29173 6.5918 7.80007C6.5918 6.51673 7.60013 5.4834 8.83346 5.4834H10.9251C12.2918 5.4834 13.4001 6.6334 13.4001 8.05007C13.4001 8.39173 13.1168 8.67507 12.7751 8.67507C12.4335 8.67507 12.1501 8.39173 12.1501 8.05007C12.1501 7.32507 11.6001 6.7334 10.9251 6.7334H8.83346C8.2918 6.7334 7.8418 7.21673 7.8418 7.80007C7.8418 8.52506 8.10013 8.66673 8.52513 8.81673L11.8835 10.0001C12.5335 10.2251 13.4085 10.7084 13.4085 12.2001C13.4001 13.4751 12.4001 14.5167 11.1668 14.5167Z"/>
</mask>
<path d="M11.4751 11.1834L11.9744 9.76891L11.9736 9.76865L11.4751 11.1834ZM8.1168 10.0001L8.6153 8.5853L8.60746 8.58259L8.1168 10.0001ZM8.52513 8.81673L8.0259 10.2312L8.02663 10.2315L8.52513 8.81673ZM11.8835 10.0001L11.385 11.4148L11.3928 11.4175L11.8835 10.0001ZM13.4085 12.2001L14.9085 12.2099V12.2001H13.4085ZM11.1668 13.0167H9.07513V16.0167H11.1668V13.0167ZM9.07513 13.0167C8.58807 13.0167 8.10013 12.5904 8.10013 11.9501H5.10013C5.10013 14.143 6.82886 16.0167 9.07513 16.0167V13.0167ZM8.10013 11.9501C8.10013 12.4368 7.71189 12.8251 7.22513 12.8251V9.82507C6.05504 9.82507 5.10013 10.78 5.10013 11.9501H8.10013ZM7.22513 12.8251C6.73837 12.8251 6.35013 12.4368 6.35013 11.9501H9.35013C9.35013 10.78 8.39522 9.82507 7.22513 9.82507V12.8251ZM6.35013 11.9501C6.35013 13.3993 7.47124 14.7667 9.07513 14.7667V11.7667C9.19074 11.7667 9.27175 11.8199 9.30784 11.8587C9.34239 11.8958 9.35013 11.931 9.35013 11.9501H6.35013ZM9.07513 14.7667H11.1668V11.7667H9.07513V14.7667ZM11.1668 14.7667C12.6374 14.7667 13.6585 13.5076 13.6585 12.2001H10.6585C10.6585 12.1042 10.6953 12.0081 10.7674 11.9306C10.8402 11.8523 10.9779 11.7667 11.1668 11.7667V14.7667ZM13.6585 12.2001C13.6585 11.6937 13.5749 11.0647 13.1401 10.5299C12.7282 10.0233 12.1755 9.83989 11.9744 9.76891L10.9759 12.5979C11.0705 12.6313 11.0713 12.6359 11.0442 12.6211C11.0028 12.5986 10.9062 12.5378 10.8123 12.4223C10.6129 12.1771 10.6585 11.9814 10.6585 12.2001H13.6585ZM11.9736 9.76865L8.61529 8.58532L7.6183 11.4148L10.9766 12.5981L11.9736 9.76865ZM8.60746 8.58259C8.38581 8.50586 8.28219 8.435 8.22859 8.37508C8.20571 8.3495 8.17735 8.31009 8.15157 8.23778C8.12461 8.16214 8.0918 8.02549 8.0918 7.80007H5.0918C5.0918 8.86548 5.41549 9.72992 5.9925 10.3751C6.53891 10.986 7.19778 11.2693 7.62613 11.4175L8.60746 8.58259ZM8.0918 7.80007C8.0918 7.30198 8.47108 6.9834 8.83346 6.9834V3.9834C6.72918 3.9834 5.0918 5.73148 5.0918 7.80007H8.0918ZM8.83346 6.9834H10.9251V3.9834H8.83346V6.9834ZM10.9251 6.9834C11.4122 6.9834 11.9001 7.4097 11.9001 8.05007H14.9001C14.9001 5.85709 13.1714 3.9834 10.9251 3.9834V6.9834ZM11.9001 8.05007C11.9001 7.5633 12.2884 7.17507 12.7751 7.17507V10.1751C13.9452 10.1751 14.9001 9.22016 14.9001 8.05007H11.9001ZM12.7751 7.17507C13.2619 7.17507 13.6501 7.5633 13.6501 8.05007H10.6501C10.6501 9.22016 11.605 10.1751 12.7751 10.1751V7.17507ZM13.6501 8.05007C13.6501 6.60081 12.529 5.2334 10.9251 5.2334V8.2334C10.8095 8.2334 10.7285 8.18025 10.6924 8.14145C10.6579 8.10431 10.6501 8.06916 10.6501 8.05007H13.6501ZM10.9251 5.2334H8.83346V8.2334H10.9251V5.2334ZM8.83346 5.2334C7.36287 5.2334 6.3418 6.49251 6.3418 7.80007H9.3418C9.3418 7.89592 9.30496 7.99204 9.23285 8.06956C9.16001 8.14788 9.02238 8.2334 8.83346 8.2334V5.2334ZM6.3418 7.80007C6.3418 8.30643 6.42539 8.9354 6.86017 9.47023C7.27205 9.97687 7.82479 10.1602 8.0259 10.2312L9.02436 7.40225C8.92978 7.36887 8.92898 7.36427 8.95605 7.379C8.99747 7.40154 9.0941 7.4623 9.188 7.57782C9.38737 7.82306 9.3418 8.0187 9.3418 7.80007H6.3418ZM8.02663 10.2315L11.385 11.4148L12.382 8.58532L9.02363 7.40199L8.02663 10.2315ZM11.3928 11.4175C11.6144 11.4943 11.7181 11.5651 11.7717 11.6251C11.7945 11.6506 11.8229 11.69 11.8487 11.7624C11.8756 11.838 11.9085 11.9746 11.9085 12.2001H14.9085C14.9085 11.1347 14.5848 10.2702 14.0078 9.62508C13.4614 9.01417 12.8025 8.73086 12.3741 8.58259L11.3928 11.4175ZM11.9085 12.1903C11.9052 12.7003 11.5171 13.0167 11.1668 13.0167V16.0167C13.2831 16.0167 14.8951 14.2498 14.9084 12.2099L11.9085 12.1903Z" fill="#8F9BB3" mask="url(#path-1-inside-1_599_1339)"/>
<mask id="path-3-inside-2_599_1339" fill="white">
<path d="M10 15.625C9.65833 15.625 9.375 15.3417 9.375 15V5C9.375 4.65833 9.65833 4.375 10 4.375C10.3417 4.375 10.625 4.65833 10.625 5V15C10.625 15.3417 10.3417 15.625 10 15.625Z"/>
</mask>
<path d="M10 14.125C10.4868 14.125 10.875 14.5132 10.875 15H7.875C7.875 16.1701 8.82991 17.125 10 17.125V14.125ZM10.875 15V5H7.875V15H10.875ZM10.875 5C10.875 5.48676 10.4868 5.875 10 5.875V2.875C8.82991 2.875 7.875 3.82991 7.875 5H10.875ZM10 5.875C9.51324 5.875 9.125 5.48676 9.125 5H12.125C12.125 3.82991 11.1701 2.875 10 2.875V5.875ZM9.125 5V15H12.125V5H9.125ZM9.125 15C9.125 14.5132 9.51324 14.125 10 14.125V17.125C11.1701 17.125 12.125 16.1701 12.125 15H9.125Z" fill="#8F9BB3" mask="url(#path-3-inside-2_599_1339)"/>
<path d="M9.99984 18.4582C5.33431 18.4582 1.5415 14.6654 1.5415 9.99984C1.5415 5.33431 5.33431 1.5415 9.99984 1.5415C14.6654 1.5415 18.4582 5.33431 18.4582 9.99984C18.4582 14.6654 14.6654 18.4582 9.99984 18.4582ZM9.99984 1.7915C5.47369 1.7915 1.7915 5.47369 1.7915 9.99984C1.7915 14.526 5.47369 18.2082 9.99984 18.2082C14.526 18.2082 18.2082 14.526 18.2082 9.99984C18.2082 5.47369 14.526 1.7915 9.99984 1.7915Z" fill="#8F9BB3" stroke="#8F9BB3"/>
</svg>
