<svg width="118" height="16" viewBox="0 0 118 16" fill="none" xmlns="http://www.w3.org/2000/svg">
<path d="M8.32 0.688C9.76 0.688 11.0453 0.986666 12.176 1.584C13.3067 2.17067 14.1867 2.99733 14.816 4.064C15.456 5.13067 15.776 6.34667 15.776 7.712C15.776 9.07733 15.5253 10.1493 15.024 10.928C14.5227 11.7067 13.824 12.096 12.928 12.096C12.416 12.096 11.9893 11.968 11.648 11.712C11.3173 11.4453 11.104 11.0667 11.008 10.576C10.688 11.0667 10.2667 11.4453 9.744 11.712C9.232 11.968 8.64 12.096 7.968 12.096C7.22133 12.096 6.54933 11.92 5.952 11.568C5.35467 11.216 4.88533 10.7307 4.544 10.112C4.21333 9.48267 4.048 8.77333 4.048 7.984C4.048 7.20533 4.21333 6.50667 4.544 5.888C4.88533 5.25867 5.35467 4.77333 5.952 4.432C6.54933 4.08 7.22133 3.904 7.968 3.904C8.58667 3.904 9.14667 4.02133 9.648 4.256C10.1493 4.48 10.5653 4.816 10.896 5.264V3.968H12.288V9.728C12.288 10.1227 12.3733 10.416 12.544 10.608C12.7147 10.7893 12.9333 10.88 13.2 10.88C13.6693 10.88 14.032 10.608 14.288 10.064C14.5547 9.50933 14.688 8.73067 14.688 7.728C14.688 6.544 14.4213 5.504 13.888 4.608C13.3547 3.70133 12.6027 2.99733 11.632 2.496C10.672 1.99467 9.568 1.744 8.32 1.744C7.06133 1.744 5.94667 2.00533 4.976 2.528C4.016 3.05067 3.26933 3.78133 2.736 4.72C2.20267 5.65867 1.936 6.73067 1.936 7.936C1.936 9.152 2.19733 10.2293 2.72 11.168C3.25333 12.1067 3.99467 12.8373 4.944 13.36C5.904 13.8933 7.008 14.16 8.256 14.16C8.77867 14.16 9.312 14.1013 9.856 13.984C10.4 13.8667 10.896 13.6907 11.344 13.456L11.696 14.48C11.2267 14.7253 10.6827 14.912 10.064 15.04C9.44533 15.168 8.84267 15.232 8.256 15.232C6.79467 15.232 5.49333 14.9173 4.352 14.288C3.22133 13.6693 2.34133 12.8053 1.712 11.696C1.08267 10.5867 0.768 9.33333 0.768 7.936C0.768 6.53867 1.08267 5.29067 1.712 4.192C2.352 3.09333 3.24267 2.23467 4.384 1.616C5.536 0.997333 6.848 0.688 8.32 0.688ZM8.192 10.848C8.71467 10.848 9.17867 10.7307 9.584 10.496C10 10.2613 10.3253 9.93067 10.56 9.504C10.8053 9.06667 10.928 8.56 10.928 7.984C10.928 7.408 10.8053 6.90667 10.56 6.48C10.3253 6.04267 10 5.712 9.584 5.488C9.17867 5.25333 8.71467 5.136 8.192 5.136C7.38133 5.136 6.72533 5.39733 6.224 5.92C5.72267 6.432 5.472 7.12 5.472 7.984C5.472 8.848 5.72267 9.54133 6.224 10.064C6.736 10.5867 7.392 10.848 8.192 10.848ZM28.6109 3.44C29.6775 3.44 30.5202 3.74933 31.1389 4.368C31.7682 4.98667 32.0829 5.904 32.0829 7.12V12H30.5469V7.296C30.5469 6.47467 30.3549 5.856 29.9709 5.44C29.5975 5.024 29.0589 4.816 28.3549 4.816C27.5762 4.816 26.9575 5.06133 26.4989 5.552C26.0402 6.032 25.8109 6.72533 25.8109 7.632V12H24.2749V7.296C24.2749 6.47467 24.0829 5.856 23.6989 5.44C23.3255 5.024 22.7869 4.816 22.0829 4.816C21.3042 4.816 20.6855 5.06133 20.2269 5.552C19.7682 6.032 19.5389 6.72533 19.5389 7.632V12H18.0029V3.52H19.4749V4.784C19.7842 4.34667 20.1895 4.016 20.6909 3.792C21.1922 3.55733 21.7629 3.44 22.4029 3.44C23.0642 3.44 23.6509 3.57333 24.1629 3.84C24.6749 4.10667 25.0695 4.496 25.3469 5.008C25.6669 4.51733 26.1095 4.13333 26.6749 3.856C27.2509 3.57867 27.8962 3.44 28.6109 3.44ZM42.8131 3.52V12H41.3571V10.72C41.0478 11.1573 40.6371 11.4987 40.1251 11.744C39.6238 11.9787 39.0745 12.096 38.4771 12.096C37.3465 12.096 36.4558 11.7867 35.8051 11.168C35.1545 10.5387 34.8291 9.616 34.8291 8.4V3.52H36.3651V8.224C36.3651 9.04533 36.5625 9.66933 36.9571 10.096C37.3518 10.512 37.9171 10.72 38.6531 10.72C39.4638 10.72 40.1038 10.4747 40.5731 9.984C41.0425 9.49333 41.2771 8.8 41.2771 7.904V3.52H42.8131ZM47.2093 4.944C47.4759 4.45333 47.8706 4.08 48.3932 3.824C48.9159 3.568 49.5506 3.44 50.2973 3.44V4.928C50.2119 4.91733 50.0946 4.912 49.9453 4.912C49.1133 4.912 48.4573 5.16267 47.9773 5.664C47.5079 6.15467 47.2733 6.85867 47.2733 7.776V12H45.7373V3.52H47.2093V4.944ZM62.7984 3.44C63.865 3.44 64.7077 3.74933 65.3264 4.368C65.9557 4.98667 66.2704 5.904 66.2704 7.12V12H64.7344V7.296C64.7344 6.47467 64.5424 5.856 64.1584 5.44C63.785 5.024 63.2464 4.816 62.5424 4.816C61.7637 4.816 61.145 5.06133 60.6864 5.552C60.2277 6.032 59.9984 6.72533 59.9984 7.632V12H58.4624V7.296C58.4624 6.47467 58.2704 5.856 57.8864 5.44C57.513 5.024 56.9744 4.816 56.2704 4.816C55.4917 4.816 54.873 5.06133 54.4144 5.552C53.9557 6.032 53.7264 6.72533 53.7264 7.632V12H52.1904V3.52H53.6624V4.784C53.9717 4.34667 54.377 4.016 54.8784 3.792C55.3797 3.55733 55.9504 3.44 56.5904 3.44C57.2517 3.44 57.8384 3.57333 58.3504 3.84C58.8624 4.10667 59.257 4.496 59.5344 5.008C59.8544 4.51733 60.297 4.13333 60.8624 3.856C61.4384 3.57867 62.0837 3.44 62.7984 3.44ZM77.0006 3.52V12H75.5446V10.72C75.2353 11.1573 74.8246 11.4987 74.3126 11.744C73.8113 11.9787 73.262 12.096 72.6646 12.096C71.534 12.096 70.6433 11.7867 69.9926 11.168C69.342 10.5387 69.0166 9.616 69.0166 8.4V3.52H70.5526V8.224C70.5526 9.04533 70.75 9.66933 71.1446 10.096C71.5393 10.512 72.1046 10.72 72.8406 10.72C73.6513 10.72 74.2913 10.4747 74.7606 9.984C75.23 9.49333 75.4646 8.8 75.4646 7.904V3.52H77.0006ZM81.3968 4.944C81.6634 4.45333 82.0581 4.08 82.5807 3.824C83.1034 3.568 83.7381 3.44 84.4848 3.44V4.928C84.3994 4.91733 84.2821 4.912 84.1328 4.912C83.3008 4.912 82.6448 5.16267 82.1648 5.664C81.6954 6.15467 81.4608 6.85867 81.4608 7.776V12H79.9248V3.52H81.3968V4.944ZM89.9958 12.096C89.1318 12.096 88.3584 11.9093 87.6758 11.536C87.0038 11.1627 86.4758 10.6507 86.0918 10C85.7078 9.33867 85.5158 8.592 85.5158 7.76C85.5158 6.928 85.7078 6.18667 86.0918 5.536C86.4758 4.87467 87.0038 4.36267 87.6758 4C88.3584 3.62667 89.1318 3.44 89.9958 3.44C90.7638 3.44 91.4464 3.59467 92.0438 3.904C92.6518 4.21333 93.1211 4.66133 93.4518 5.248L92.2838 6C92.0171 5.59467 91.6864 5.29067 91.2918 5.088C90.8971 4.88533 90.4598 4.784 89.9798 4.784C89.4251 4.784 88.9238 4.90667 88.4758 5.152C88.0384 5.39733 87.6918 5.74933 87.4358 6.208C87.1904 6.656 87.0678 7.17333 87.0678 7.76C87.0678 8.35733 87.1904 8.88533 87.4358 9.344C87.6918 9.792 88.0384 10.1387 88.4758 10.384C88.9238 10.6293 89.4251 10.752 89.9798 10.752C90.4598 10.752 90.8971 10.6507 91.2918 10.448C91.6864 10.2453 92.0171 9.94133 92.2838 9.536L93.4518 10.272C93.1211 10.8587 92.6518 11.312 92.0438 11.632C91.4464 11.9413 90.7638 12.096 89.9958 12.096ZM98.5284 3.44C99.7017 3.44 100.598 3.728 101.216 4.304C101.846 4.88 102.16 5.73867 102.16 6.88V12H100.704V10.88C100.448 11.2747 100.08 11.5787 99.6004 11.792C99.131 11.9947 98.571 12.096 97.9204 12.096C96.971 12.096 96.2084 11.8667 95.6324 11.408C95.067 10.9493 94.7844 10.3467 94.7844 9.6C94.7844 8.85333 95.0564 8.256 95.6004 7.808C96.1444 7.34933 97.0084 7.12 98.1924 7.12H100.624V6.816C100.624 6.15467 100.432 5.648 100.048 5.296C99.6644 4.944 99.099 4.768 98.3524 4.768C97.851 4.768 97.3604 4.85333 96.8804 5.024C96.4004 5.184 95.995 5.40267 95.6644 5.68L95.0244 4.528C95.4617 4.176 95.9844 3.90933 96.5924 3.728C97.2004 3.536 97.8457 3.44 98.5284 3.44ZM98.1764 10.912C98.763 10.912 99.2697 10.784 99.6964 10.528C100.123 10.2613 100.432 9.888 100.624 9.408V8.224H98.2564C96.955 8.224 96.3044 8.66133 96.3044 9.536C96.3044 9.96267 96.4697 10.2987 96.8004 10.544C97.131 10.7893 97.5897 10.912 98.1764 10.912ZM106.475 4.944C106.742 4.45333 107.136 4.08 107.659 3.824C108.182 3.568 108.816 3.44 109.563 3.44V4.928C109.478 4.91733 109.36 4.912 109.211 4.912C108.379 4.912 107.723 5.16267 107.243 5.664C106.774 6.15467 106.539 6.85867 106.539 7.776V12H105.003V3.52H106.475V4.944ZM113.951 12.096C113.257 12.096 112.591 12.0053 111.951 11.824C111.311 11.632 110.809 11.392 110.447 11.104L111.087 9.888C111.46 10.1547 111.913 10.368 112.447 10.528C112.98 10.688 113.519 10.768 114.062 10.768C115.407 10.768 116.079 10.384 116.079 9.616C116.079 9.36 115.988 9.15733 115.807 9.008C115.625 8.85867 115.396 8.752 115.119 8.688C114.852 8.61333 114.468 8.53333 113.967 8.448C113.284 8.34133 112.724 8.21867 112.287 8.08C111.86 7.94133 111.492 7.70667 111.183 7.376C110.873 7.04533 110.719 6.58133 110.719 5.984C110.719 5.216 111.039 4.60267 111.679 4.144C112.319 3.67467 113.177 3.44 114.255 3.44C114.82 3.44 115.385 3.50933 115.951 3.648C116.516 3.78667 116.98 3.97333 117.343 4.208L116.687 5.424C115.993 4.976 115.177 4.752 114.239 4.752C113.588 4.752 113.092 4.85867 112.751 5.072C112.409 5.28533 112.239 5.568 112.239 5.92C112.239 6.19733 112.335 6.416 112.527 6.576C112.719 6.736 112.953 6.85333 113.231 6.928C113.519 7.00267 113.919 7.088 114.431 7.184C115.113 7.30133 115.663 7.42933 116.079 7.568C116.505 7.696 116.868 7.92 117.167 8.24C117.465 8.56 117.615 9.008 117.615 9.584C117.615 10.352 117.284 10.9653 116.623 11.424C115.972 11.872 115.081 12.096 113.951 12.096Z" fill="#3F2B89"/>
</svg>
