<svg width="18" height="18" viewBox="0 0 18 18" fill="none" xmlns="http://www.w3.org/2000/svg">
<path d="M11.1665 16.5V11.7735L12.55 11.7499L12.5636 11.7497L12.5771 11.7487C12.9083 11.7251 13.1989 11.4879 13.2721 11.1464L13.2736 11.1391L13.275 11.1318L13.5667 9.54013L13.5667 9.54014L13.568 9.5322C13.6438 9.07799 13.2927 8.65833 12.8248 8.65833V8.65828L12.8178 8.65838L11.1234 8.68225L11.0956 6.97917L12.8467 6.94998C13.262 6.94725 13.5915 6.61616 13.5915 6.20001H13.5916L13.5914 6.19168L13.5582 4.19481C13.5554 3.77944 13.2243 3.45 12.8082 3.45V3.44994L12.8008 3.45005L10.5508 3.48339L10.5491 3.48342C8.89153 3.51338 7.56991 4.87277 7.59993 6.53403L7.59993 6.53408L7.64009 8.74315L6.72791 8.75835C6.31258 8.76112 5.98318 9.09227 5.98318 9.50832H5.98312L5.98324 9.51621L6.00819 11.0966C6.01081 11.5121 6.34201 11.8417 6.75817 11.8417V11.8417L6.7665 11.8416L7.68457 11.8263L7.75822 16.4912L7.75824 16.4923C7.7616 16.6806 7.61062 16.8333 7.42483 16.8333H5.50817C4.09095 16.8333 3.01992 16.4128 2.30361 15.6956C1.58723 14.9783 1.1665 13.9051 1.1665 12.4833V5.50833C1.1665 4.0911 1.58702 3.01992 2.30339 2.30355C3.01976 1.58718 4.09094 1.16666 5.50817 1.16666H12.4915C13.9087 1.16666 14.9799 1.58718 15.6963 2.30355C16.4127 3.01992 16.8332 4.0911 16.8332 5.50833V12.4917C16.8332 13.9089 16.4127 14.9801 15.6963 15.6964C14.9799 16.4128 13.9087 16.8333 12.4915 16.8333H11.4998C11.3176 16.8333 11.1665 16.6822 11.1665 16.5Z" fill="#3F2B89" stroke="#3F2B89"/>
</svg>
