<svg width="16" height="16" viewBox="0 0 16 16" fill="none" xmlns="http://www.w3.org/2000/svg">
<path d="M14.2969 0.5H1.78125C1.09766 0.5 0.5 0.992188 0.5 1.66797V14.2109C0.5 14.8906 1.09766 15.4961 1.78125 15.4961H14.293C14.9805 15.4961 15.4961 14.8867 15.4961 14.2109V1.66797C15.5 0.992188 14.9805 0.5 14.2969 0.5ZM5.14844 13H3V6.32031H5.14844V13ZM4.14844 5.30469H4.13281C3.44531 5.30469 3 4.79297 3 4.15234C3 3.5 3.45703 3 4.16016 3C4.86328 3 5.29297 3.49609 5.30859 4.15234C5.30859 4.79297 4.86328 5.30469 4.14844 5.30469ZM13 13H10.8516V9.34766C10.8516 8.47266 10.5391 7.875 9.76172 7.875C9.16797 7.875 8.81641 8.27734 8.66016 8.66797C8.60156 8.80859 8.58594 9 8.58594 9.19531V13H6.4375V6.32031H8.58594V7.25C8.89844 6.80469 9.38672 6.16406 10.5234 6.16406C11.9336 6.16406 13 7.09375 13 9.09766V13Z" fill="#3F2B89"/>
</svg>
