<svg width="86" height="105" viewBox="0 0 86 105" fill="none" xmlns="http://www.w3.org/2000/svg">
<g opacity="0.08">
<path d="M80.0566 67.6203C82.7613 66.0587 84.5224 63.9038 85.3398 61.1554C86.0824 58.387 85.6733 55.6512 84.1126 52.9479C82.5519 50.2447 80.4145 48.5699 77.7005 47.9237C74.9116 47.2574 72.1648 47.7051 69.4601 49.2666C66.7554 50.8282 65.0181 52.9695 64.2481 55.6904C63.4033 58.3914 63.7613 61.0935 65.322 63.7967C66.8827 66.5 69.0712 68.2084 71.8874 68.9221C74.6288 69.6158 77.3519 69.1818 80.0566 67.6203Z" fill="#3F2B89"/>
<path d="M55.4131 81.131L40.2119 0.557972L25.9766 8.77674L41.1778 89.3498L55.4131 81.131Z" fill="#3F2B89"/>
<path d="M29.7645 95.9393L14.5633 15.3662L0.328019 23.585L15.5292 104.158L29.7645 95.9393Z" fill="#3F2B89"/>
</g>
</svg>
