<svg width="178" height="50" viewBox="0 0 178 50" fill="none" xmlns="http://www.w3.org/2000/svg">
<path d="M6.23201 40.41C4.67401 40.41 3.37567 39.918 2.33701 38.934C1.32567 37.9227 0.820007 36.638 0.820007 35.08C0.820007 33.522 1.32567 32.2647 2.33701 31.308C3.37567 30.324 4.67401 29.832 6.23201 29.832C7.79001 29.832 9.07467 30.324 10.086 31.308C11.1247 32.2647 11.644 33.522 11.644 35.08C11.644 36.638 11.1247 37.9227 10.086 38.934C9.07467 39.918 7.79001 40.41 6.23201 40.41Z" fill="white"/>
<path d="M20.2486 40.1L6.71856 1.478H14.9186L28.4486 40.1H20.2486Z" fill="white"/>
<path d="M35.023 40.1L21.493 1.478H29.693L43.223 40.1H35.023Z" fill="white"/>
<path d="M68.174 17.942V40H62.106V37.376C61.2587 38.3327 60.2473 39.0707 59.072 39.59C57.8967 40.082 56.6257 40.328 55.259 40.328C52.3617 40.328 50.0657 39.4943 48.371 37.827C46.6763 36.1597 45.829 33.686 45.829 30.406V17.942H52.225V29.463C52.225 33.0163 53.7147 34.793 56.694 34.793C58.2247 34.793 59.4547 34.301 60.384 33.317C61.3133 32.3057 61.778 30.816 61.778 28.848V17.942H68.174ZM80.2085 20.853C80.9738 19.787 81.9988 18.9807 83.2835 18.434C84.5955 17.8873 86.0988 17.614 87.7935 17.614V23.518C87.0828 23.4633 86.6045 23.436 86.3585 23.436C84.5271 23.436 83.0921 23.9553 82.0535 24.994C81.0148 26.0053 80.4955 27.536 80.4955 29.586V40H74.0995V17.942H80.2085V20.853ZM119.846 17.614C122.606 17.614 124.793 18.434 126.406 20.074C128.046 21.6867 128.866 24.1193 128.866 27.372V40H122.47V28.356C122.47 26.6067 122.101 25.3083 121.363 24.461C120.652 23.5863 119.627 23.149 118.288 23.149C116.784 23.149 115.595 23.641 114.721 24.625C113.846 25.5817 113.409 27.0167 113.409 28.93V40H107.013V28.356C107.013 24.8847 105.619 23.149 102.831 23.149C101.355 23.149 100.179 23.641 99.3045 24.625C98.4299 25.5817 97.9925 27.0167 97.9925 28.93V40H91.5965V17.942H97.7055V20.484C98.5255 19.5547 99.5232 18.844 100.699 18.352C101.901 17.86 103.213 17.614 104.635 17.614C106.193 17.614 107.6 17.9283 108.858 18.557C110.115 19.1583 111.126 20.0467 111.892 21.222C112.794 20.074 113.928 19.1857 115.295 18.557C116.689 17.9283 118.206 17.614 119.846 17.614ZM156.82 17.942V40H150.752V37.376C149.905 38.3327 148.894 39.0707 147.718 39.59C146.543 40.082 145.272 40.328 143.905 40.328C141.008 40.328 138.712 39.4943 137.017 37.827C135.323 36.1597 134.475 33.686 134.475 30.406V17.942H140.871V29.463C140.871 33.0163 142.361 34.793 145.34 34.793C146.871 34.793 148.101 34.301 149.03 33.317C149.96 32.3057 150.424 30.816 150.424 28.848V17.942H156.82ZM168.855 20.853C169.62 19.787 170.645 18.9807 171.93 18.434C173.242 17.8873 174.745 17.614 176.44 17.614V23.518C175.729 23.4633 175.251 23.436 175.005 23.436C173.174 23.436 171.739 23.9553 170.7 24.994C169.661 26.0053 169.142 27.536 169.142 29.586V40H162.746V17.942H168.855V20.853Z" fill="white"/>
</svg>
