<svg width="178" height="50" viewBox="0 0 178 50" fill="none" xmlns="http://www.w3.org/2000/svg">
<path d="M6.23207 40.41C4.67407 40.41 3.37574 39.918 2.33707 38.934C1.32574 37.9227 0.820068 36.638 0.820068 35.08C0.820068 33.522 1.32574 32.2647 2.33707 31.308C3.37574 30.324 4.67407 29.832 6.23207 29.832C7.79007 29.832 9.07473 30.324 10.0861 31.308C11.1247 32.2647 11.6441 33.522 11.6441 35.08C11.6441 36.638 11.1247 37.9227 10.0861 38.934C9.07473 39.918 7.79007 40.41 6.23207 40.41Z" fill="#3F2B89"/>
<path d="M20.2486 40.1L6.71862 1.47803H14.9186L28.4486 40.1H20.2486Z" fill="#3F2B89"/>
<path d="M35.023 40.1L21.493 1.47803H29.693L43.223 40.1H35.023Z" fill="#3F2B89"/>
<path d="M68.1741 17.942V40H62.1061V37.376C61.2587 38.3327 60.2474 39.0707 59.0721 39.59C57.8967 40.082 56.6257 40.328 55.2591 40.328C52.3617 40.328 50.0657 39.4943 48.3711 37.827C46.6764 36.1597 45.8291 33.686 45.8291 30.406V17.942H52.2251V29.463C52.2251 33.0163 53.7147 34.793 56.6941 34.793C58.2247 34.793 59.4547 34.301 60.3841 33.317C61.3134 32.3057 61.7781 30.816 61.7781 28.848V17.942H68.1741ZM80.2085 20.853C80.9739 19.787 81.9989 18.9807 83.2835 18.434C84.5955 17.8873 86.0989 17.614 87.7935 17.614V23.518C87.0829 23.4633 86.6045 23.436 86.3585 23.436C84.5272 23.436 83.0922 23.9553 82.0535 24.994C81.0149 26.0053 80.4955 27.536 80.4955 29.586V40H74.0995V17.942H80.2085V20.853ZM119.846 17.614C122.606 17.614 124.793 18.434 126.406 20.074C128.046 21.6867 128.866 24.1193 128.866 27.372V40H122.47V28.356C122.47 26.6067 122.101 25.3083 121.363 24.461C120.652 23.5863 119.627 23.149 118.288 23.149C116.784 23.149 115.595 23.641 114.721 24.625C113.846 25.5817 113.409 27.0167 113.409 28.93V40H107.013V28.356C107.013 24.8847 105.619 23.149 102.831 23.149C101.355 23.149 100.179 23.641 99.3046 24.625C98.4299 25.5817 97.9926 27.0167 97.9926 28.93V40H91.5966V17.942H97.7056V20.484C98.5256 19.5547 99.5233 18.844 100.699 18.352C101.901 17.86 103.213 17.614 104.635 17.614C106.193 17.614 107.6 17.9283 108.858 18.557C110.115 19.1583 111.126 20.0467 111.892 21.222C112.794 20.074 113.928 19.1857 115.295 18.557C116.689 17.9283 118.206 17.614 119.846 17.614ZM156.821 17.942V40H150.753V37.376C149.905 38.3327 148.894 39.0707 147.719 39.59C146.543 40.082 145.272 40.328 143.906 40.328C141.008 40.328 138.712 39.4943 137.018 37.827C135.323 36.1597 134.476 33.686 134.476 30.406V17.942H140.872V29.463C140.872 33.0163 142.361 34.793 145.341 34.793C146.871 34.793 148.101 34.301 149.031 33.317C149.96 32.3057 150.425 30.816 150.425 28.848V17.942H156.821ZM168.855 20.853C169.62 19.787 170.645 18.9807 171.93 18.434C173.242 17.8873 174.745 17.614 176.44 17.614V23.518C175.729 23.4633 175.251 23.436 175.005 23.436C173.174 23.436 171.739 23.9553 170.7 24.994C169.661 26.0053 169.142 27.536 169.142 29.586V40H162.746V17.942H168.855V20.853Z" fill="#3F2B89"/>
</svg>
