<svg width="20" height="20" viewBox="0 0 20 20" fill="none" xmlns="http://www.w3.org/2000/svg">
<path d="M10.7583 3.42499C10.7583 2.67614 11.3678 2.06667 12.1166 2.06667C12.864 2.06667 13.475 2.68301 13.475 3.42499V7.29167C13.475 8.04052 12.8655 8.65001 12.1166 8.65001C11.3678 8.65001 10.7583 8.04053 10.7583 7.29167V3.42499Z" fill="#3F2B89" stroke="#3F2B89"/>
<path d="M15.7002 7.54166C15.7002 6.92613 16.2013 6.42499 16.8169 6.42499C17.4324 6.42499 17.9419 6.93447 17.9419 7.55C17.9419 8.16552 17.4407 8.66667 16.8252 8.66667H15.7002V7.54166Z" fill="#3F2B89" stroke="#3F2B89"/>
<path d="M7.08339 5.82499H3.21673C2.19173 5.82499 1.3584 6.65834 1.3584 7.68334C1.3584 8.70834 2.19173 9.54168 3.21673 9.54168H7.08339C8.10839 9.54168 8.94172 8.70834 8.94172 7.68334C8.94172 6.65834 8.10839 5.82499 7.08339 5.82499Z" fill="#3F2B89"/>
<path d="M7.32515 1.35C6.43349 1.35 5.7085 2.075 5.7085 2.96667C5.7085 3.85833 6.43349 4.58333 7.32515 4.58333H8.63349C8.80849 4.58333 8.95016 4.44166 8.95016 4.26666V2.95832C8.94183 2.08332 8.21682 1.35 7.32515 1.35Z" fill="#3F2B89"/>
<path d="M7.85833 10.8583C6.83333 10.8583 6 11.6917 6 12.7167V16.5833C6 17.6083 6.83333 18.4417 7.85833 18.4417C8.88333 18.4417 9.71667 17.6083 9.71667 16.5833V12.7167C9.71667 11.6917 8.88333 10.8583 7.85833 10.8583Z" fill="#3F2B89"/>
<path d="M4.4665 10.8583H3.15816C2.26649 10.8583 1.5415 11.5833 1.5415 12.475C1.5415 13.3667 2.26649 14.0917 3.15816 14.0917C4.04983 14.0917 4.77483 13.3667 4.77483 12.475V11.1667C4.77483 11 4.63317 10.8583 4.4665 10.8583Z" fill="#3F2B89"/>
<path d="M16.7582 10.475H12.8915C11.8665 10.475 11.0332 11.3083 11.0332 12.3333C11.0332 13.3583 11.8665 14.1917 12.8915 14.1917H16.7582C17.7832 14.1917 18.6165 13.3583 18.6165 12.3333C18.6165 11.3083 17.7832 10.475 16.7582 10.475Z" fill="#3F2B89"/>
<path d="M12.6499 15.3917H11.3416C11.1666 15.3917 11.0249 15.5333 11.0249 15.7083V17.0167C11.0249 17.9083 11.7499 18.6333 12.6416 18.6333C13.5332 18.6333 14.2582 17.9083 14.2582 17.0167C14.2666 16.1167 13.5416 15.3917 12.6499 15.3917Z" fill="#3F2B89"/>
</svg>
