<svg width="86" height="105" viewBox="0 0 86 105" fill="none" xmlns="http://www.w3.org/2000/svg">
<g opacity="0.08">
<path d="M80.0565 67.6202C82.7612 66.0587 84.5222 63.9037 85.3397 61.1553C86.0823 58.387 85.6732 55.6511 84.1125 52.9479C82.5517 50.2447 80.4144 48.5699 77.7003 47.9237C74.9115 47.2574 72.1647 47.705 69.46 49.2666C66.7553 50.8282 65.0179 52.9694 64.248 55.6904C63.4032 58.3913 63.7611 61.0934 65.3219 63.7967C66.8826 66.4999 69.0711 68.2084 71.8873 68.9221C74.6287 69.6157 77.3518 69.1818 80.0565 67.6202Z" fill="#3F2B89"/>
<path d="M55.413 81.131L40.2118 0.557926L25.9765 8.77669L41.1777 89.3498L55.413 81.131Z" fill="#3F2B89"/>
<path d="M29.7644 95.9392L14.5632 15.3661L0.327897 23.5849L15.5291 104.158L29.7644 95.9392Z" fill="#3F2B89"/>
</g>
</svg>
