<svg width="132" height="24" viewBox="0 0 132 24" fill="none" xmlns="http://www.w3.org/2000/svg">
<path d="M23.174 0.941998V23H17.106V20.376C16.2587 21.3327 15.2473 22.0707 14.072 22.59C12.8967 23.082 11.6257 23.328 10.259 23.328C7.36167 23.328 5.06567 22.4943 3.371 20.827C1.67633 19.1597 0.829 16.686 0.829 13.406V0.941998H7.225V12.463C7.225 16.0163 8.71467 17.793 11.694 17.793C13.2247 17.793 14.4547 17.301 15.384 16.317C16.3133 15.3057 16.778 13.816 16.778 11.848V0.941998H23.174ZM35.2085 3.853C35.9738 2.787 36.9988 1.98067 38.2835 1.434C39.5955 0.887333 41.0988 0.614 42.7935 0.614V6.518C42.0828 6.46333 41.6045 6.436 41.3585 6.436C39.5271 6.436 38.0921 6.95533 37.0535 7.994C36.0148 9.00533 35.4955 10.536 35.4955 12.586V23H29.0995V0.941998H35.2085V3.853ZM74.8455 0.614C77.6062 0.614 79.7929 1.434 81.4055 3.074C83.0455 4.68667 83.8655 7.11933 83.8655 10.372V23H77.4695V11.356C77.4695 9.60667 77.1005 8.30833 76.3625 7.461C75.6519 6.58633 74.6269 6.149 73.2875 6.149C71.7842 6.149 70.5952 6.641 69.7205 7.625C68.8459 8.58167 68.4085 10.0167 68.4085 11.93V23H62.0125V11.356C62.0125 7.88467 60.6185 6.149 57.8305 6.149C56.3545 6.149 55.1792 6.641 54.3045 7.625C53.4299 8.58167 52.9925 10.0167 52.9925 11.93V23H46.5965V0.941998H52.7055V3.484C53.5255 2.55467 54.5232 1.844 55.6985 1.352C56.9012 0.86 58.2132 0.614 59.6345 0.614C61.1925 0.614 62.6002 0.928333 63.8575 1.557C65.1149 2.15833 66.1262 3.04666 66.8915 4.222C67.7935 3.074 68.9279 2.18567 70.2945 1.557C71.6885 0.928333 73.2055 0.614 74.8455 0.614ZM111.82 0.941998V23H105.752V20.376C104.905 21.3327 103.894 22.0707 102.718 22.59C101.543 23.082 100.272 23.328 98.9055 23.328C96.0082 23.328 93.7122 22.4943 92.0175 20.827C90.3228 19.1597 89.4755 16.686 89.4755 13.406V0.941998H95.8715V12.463C95.8715 16.0163 97.3612 17.793 100.34 17.793C101.871 17.793 103.101 17.301 104.03 16.317C104.96 15.3057 105.424 13.816 105.424 11.848V0.941998H111.82ZM123.855 3.853C124.62 2.787 125.645 1.98067 126.93 1.434C128.242 0.887333 129.745 0.614 131.44 0.614V6.518C130.729 6.46333 130.251 6.436 130.005 6.436C128.174 6.436 126.739 6.95533 125.7 7.994C124.661 9.00533 124.142 10.536 124.142 12.586V23H117.746V0.941998H123.855V3.853Z" fill="#3F2B89"/>
</svg>
